<mxfile host="app.diagrams.net" modified="2022-05-23T15:26:07.806Z" agent="5.0 (Windows NT 10.0; Win64; x64) AppleWebKit/537.36 (KHTML, like Gecko) Chrome/100.0.4896.88 Safari/537.36" etag="e99UoJWBxYBNcECo4i66" version="18.1.1" type="github">
  <diagram id="K8zlqqlvCKX_IYBy6u0I" name="Page-1">
    <mxGraphModel dx="1422" dy="804" grid="0" gridSize="10" guides="1" tooltips="1" connect="1" arrows="1" fold="1" page="1" pageScale="1" pageWidth="850" pageHeight="1100" math="0" shadow="0">
      <root>
        <mxCell id="0" />
        <mxCell id="1" parent="0" />
        <mxCell id="FJv2uxmNR5FinH8oX0lj-6" value="" style="shape=image;verticalLabelPosition=bottom;labelBackgroundColor=default;verticalAlign=top;aspect=fixed;imageAspect=0;image=data:image/png,iVBORw0KGgoAAAANSUhEUgAAAIMAAABFCAYAAABpLFXPAAAAAXNSR0IArs4c6QAAAARnQU1BAACxjwv8YQUAAAAJcEhZcwAADsMAAA7DAcdvqGQAAAASdEVYdFNvZnR3YXJlAEdyZWVuc2hvdF5VCAUAABsNSURBVHhe7dwDrG1Ltsbx27Zt27Zt27adtm2lu9O2bdu2bZu318uv0v+Z2vvud846/XJPbl7WSEZqrpqjqkaN8dUozb332XfffVfr8N/+9rcV+sMf/jDS3/zmN6t//OMfq7/+9a/jN/rTn/400mS8R7/73e92rHPDByxeGwzRn//85/88rVa///3vR8r5Pf/lL38Z6d///vcFKP/+9793rHPDByxeGwz//Oc/RzRARnrO/+UvfznSCBjIIjJAIW+nOjd8wOI9igycjIX/po0vfvGLqxe/+MWrl73sZasvf/nLw/FFD0Doeac6N3zA4rXBYJQDQKH/EY94xOpEJzrR6uAHP/jqkIc85OqIRzziap999hl5d7/73Uf0QOSBZ6c6N3zA4j1eM4gEJz3pSYfjD3/4w68OcYhDrA584AOP30c+8pFHik92spOt3v/+948yoslOdW74gMVrg0HIt1AsAhzrWMca6UEPetCRihDSgx3sYAMknsl+5CMfGYDYqc4NH7B4bTD861//Wp35zGdeHfrQhx6OPtCBDrQ6yEEOMp7PcY5zrM5ylrMsYDjsYQ87ng91qEOtTnnKUy5bTHUUJZBdRnmekamo9xEgyiOT3HZKzw3/97w2GD7xiU8szo/Pfvazr374wx+OXQanWkACjHfHPOYxRypiPOtZzxp15HjgCBRtOy00tzubTJQeldnO8/sN/3e8Nhiud73rjbXB0Y9+9DE1nPGMZ1y2mpzcgRM617nONYAgeuDznve8Y8STw57nCJBDZ0ouAG3XJ67Ond5teM94bTCc+9znXiICftvb3jac9utf/3q8R7/61a+GA1/3utcNmcMc5jADOKYO642mA2GfXABQnkNFjKaUmcijQBPP+m34/85rg+HEJz7xAgSh/5Of/ORwEDBwzB//+MeRIjuO5KSml9/+9reLU4FingICgHaAgpxpw7aUXOV2Rdv13fCe89pgMC1wrLAv/dSnPrWsFXDH0NI3v/nNq8Md7nALEOwugIXT5xGN/OZsLFpEnucoMU8FgW6m3m34v+e1wXDRi150OPaoRz3qcPLVr3714QRrhUZuzrvYxS42ZGwtHUjZhgaaooJnTsWeEQBoC80OBzBRwnttzeWj7fpueM95bTC88Y1vXKKCtYD0Dne4w35G6W1ve9sBmqYIi84HPvCB4x3ZIsB2h772ta9d3fe+913d7GY3W93xjndcPec5z1l997vfHW0jkQXwAKOoMZffru+G95wXMDDsrhid5CQnGQ52jtA289SnPvUAwJ3vfOclEsxnELijaQ7tOBt5fsYznrE60pGOtJxixkc5ylFGeuMb33j185//fMjbxgJCdaR3kal8QIva5RRRIrqgGczq9rttrt+o/qvDc4CMtDv3S3m6WTQDbQMANQjkk6lNlEw6k/PO7/y0f/LakcFO4Qtf+MKyFsBFCJwzRYTyHTq94Q1vGIbvG4fIgvJGN7rRAA/gSO08AMPuQ/mjHe1oIz3CEY6wesc73jHKMTpDuivJSQwmj9HkScl57qIssuBNF3p1+xr1u/Kch9kgkERA3vYaaRdQyCKynukWKNRVHeqvD97N+YDR9Ijyw/7JCxgositG0ne+853DQRaFHUVzOnZPMec9/OEPH52MMiwWSchV1wws9UiBAhA8u+v49re/vTiGcVGGqx3vSntm1JwRcXr9yknJtzBGOaPf2iqqROpRfzLVGwW+2eEzaWNuvxQVZfYG7xEYdIahvv/9768udalLDSe1NsAAIHVz+b73vW+UyZgoo4gWTSONfmzh6cbzGte4xnL3gau3RevsoECRjtYaz3zmM1dPecpTVq961atGHjDMZATnUNHu4x//+HimH1sgaWH7qU996upDH/rQeP7KV74yUnZI9gMf+MBo6xe/+MXQI/2kIhF62MMetrrsZS87Lvmc0jrEsyOL1OGk9rGPfezqcY973OqnP/3pyKeDevLT/slrg4EBIw5gDAbdfhj1mte8ZrzXCWhH6s+w6DznOc8ib33hvgN4WlsgxrjIRS6yyAEP2W9961tLvYxEt+hnP/vZcpGGtRNYAAI/6EEPGmBD3/ve91aXvvSlV1e+8pVXt7nNbUbeJS5xidXjH//48fylL31pnKbe6la3Wt3znvccB20WzUCon77heP7znz/qeMITnrCACaPaBuYW37jfAGu6RAZXA4Q9PvrRj26x397gPYoMFnKedTrnMuQcHb7xjW+MfMRogaIQzWHWB5i8tYaRTKbOC+GN3OMc5zhbDPnIRz5y5DN08mTVz7CmFqze85///OM90NT+DW5wgwESwJN/u9vdbvXQhz50dfOb33z07QIXuMDqWte61pC97nWvOyINMhj0/3SnO93qLW95y+qa17zmcOYrX/nK1ZWudKXVs5/97NF+UajRTJ5z57VWXN1IHfo5gz7aW1PF2gtInUMZNWdd5zrXWTrn3kK4Q4ydYQACMJTxfh69LrQ6xSSjrcpwOCNZT1hHWD9c7WpXG++bcsg3ArXZglTdF7rQhUZ+7xnfVCQyAAAju3G98IUvPNq3oBUFlHNw5ln0iOjpFvYVr3jFGAQvfOELVy996UuHDcgDi7bYSPqd73xn6NGVPhZJT3va0w7A3u9+91t0u/zlL7/I4K9+9atDp+yRH/ZPXsDAEbtixLmU7zeHmftCtE5wUo5FfSNpFGvnrW9965DjXGUsDDmRvHJFnQBk60m+HcblLne5UV9Aa/pS9kc/+tH4wKaoY44mV91OUe90pzut7nOf+4x525xtGkDKWuuYIgDOtGHuFgEcvb/97W8ful/xilccNnjyk5+8et7znje++HrAAx4wZNpZ5ODHPOYxC/D1l8PZAJlyWlcBpX7VR5G2yCBKFmX2b94CBuR53kIVouogopzOW9Ad4xjHGB3AQqFRZuSgykiLLHYEgUenGYkjtJfjACdnM1K7Cynwpa+0epGRO+9KmibUZ6H4pCc9aenni170orEzEurRq1/96hHyAw5HqvvpT3/66NO9733vcQhGnsy73/3u1cc+9rER6UQaUaXzkKKndYa+6qdpSySpff3LxuSvcpWrLHpj0633+kh/MvNvz+oyaDxnh2TIl+c35od8Qg5Vn3TLNEFBwl5WkbxGqrx3vetdqzOd6Uyjczqa8o3G0tOc5jTD4BTOAMoz3hw2geIe97jHomQLKmSVT0Y7zh88v/zlLx/6ZUyc8XcFBqQP0Ryxahsoo0b5XIZcuwNtVq/+BV6RygBCpqLOX7BTXESevaVNd7sDgxQpo410jnIuWTKVlZKXFylrysblk13AgHSwzmfs1gbobne726IsJzZihbeAAQwzSB784AcvzrrLXe6yLKQ4rS+iGEzobmTpkFX6cY973PG+8CnktuOoE2TL2xUYcpaw27N8pM8Z07sMzanZw/u2ex1MoepA+pkt1WGbTI+mUAtPehsUc3tod2Cgh7Lqrc3eJ+O3lFzvPOuHtHJznxAdyC5gICiFogrNnXa/QMkAwOE94yJCh07e9d4i0MJrez7u2Bm7BDOvW4GXN0cR2zc6MUgAyHFoV2DgqDpfKq8IUMpwOHsgNpkNqM0MiHpXRCCjbodu6QIQpqLarmz17Q4MnKnO2bEGar4CsOpE9XnOCyT6g7IdGbyAQUEkbYooKrzpTW8aCnJ0J4KeffZmTv3MZz4z9sXPfe5zt5w7AEijYo4Whc5GPBCYV+ct6glPeMItsle96lW3ADWaQ92uwECmUahM4VlfcybjZA80Ay5HFx2Q+iqLMra62dE2OF30vzUJrr5od2Cgp3Jz//1G6e0d9hvXb/XQR4qk8g2s9FB+yzQRVREifLaznW04JedhfzgThTTE0FbaOg8wRQosz57bKp+h1SF/rns+5sbyRZb5L7cyNsogaHdrBtSztL432sr3LF8bDQjELigDktN3+YFC+eQccNUH6etf//qRnzxZ5bW1TmRAnpWt/yj717Y0Ur6y6hMB5/fqqb8LGFKwxhtFRYVYx3zWhhgqJzGQxV8Nv+AFL1jKiCZG/fGPf/zlHEI7yK7kCle4whIBZiDY9mm/SNVxr7ZCN8r4uwKDMrMBUSMf9Y4N1Ffd7DA/IyOqvKj+0JVuyJazr8mtlbpsQ7Mu5HcHBuR5Lsf+8ujL9kU7pIy+ZLtSeSiQ91s9Cxh0DgeIOu6EDgCEe+wjFzSPGErkEIZK4Ute8pLLqMC2X2Q5Rhspr9MWj7ZqdiD24A576hAqrW5l0jHaFRhiZDpznOygyH3AQx7ykNEfo0addEPm+Lve9a6rC17wguNk0rb2aU972gIEX4yrx5ZRNOyASnlT58UvfvGhB6ADuUMm9zL6qN3Pf/7zQ34dMGjT7kpZg9EB2qMe9ajlziT7o89+9rNjJ2NbLqo7RLNA/+Y3vznspy7bfzszehig2tnPmoGD6qy8/laiOV+oa2HJQcl6plD1cbgPVtoxYN9R6hiUeo+0oewMLnVixkDCILnqz7G1FTnqbgvKAU4Xlc2YCJjTpyh0//vff7wDJm0w2ulPf/rlggzPoLae+clPfjJuXkU8tsEdImnreMc73pD13oI5+1WPgcVhdEPObOTXpnORiL1MqR1gtbay0Ga7Bop23Z14pz1tzAtwDExf+9rXlt/krn/964/yWyLD7MwccYpTnGIUaiHobyOQkJ2BC0HKcWrKkVUGmNpBNL9xrlGYLAKQQBFIUCl5rF15ZObRo+75DqDj6IBjpMifb0SNDFQbjpD1NScnFwcgt60+7Mku8o1cNqSXKdFAaJc1R6z40Y9+9GiTvFPPbKSuH/zgB6MufTIAA0n1AI93DUwkeiWTvLrYvz4ZJM6JAhZ7OVVFWxaQ8/yScSBcBQyjUsZCOhBxDoPPoKCokZpCUszZZAvxnuf5XCoPiVKtSeRrR90BIMOnq6mGjo0GnUbqsxtJhxzoXgHNB12N6KZGzjz2sY89jH/DG95wvG90b3fwBz/4wf/Uslr+iGi7XODArrUjl2Lls7UvzPXTOqN8dbLlZS5zmWUgNrgcs5MpagAWh5vi1G26kJ8vAodnnxmiLZGhaFAq36duGU8DHZx4NzvO7xZkrSHMjzWIjUhEFgm1M7KBqXeBBQFLQEN+q7/ogOghzHduodNCpjYKwZzY6NMPpL0Me+tb33o4Yp4eOq6e27duyCaNQu1Z87AdcImcN73pTZfoIkr4VsEW3HTiOJtuiA6u69UDyMogaxZlObX29KXBkJ8+/elPj3exwetCjj1Q/XMXY9oPELXn/gVtAQPK0IVjHaqgRiAQhUgy5JFRzzk5skVRZSEUaUP52iTP2Mq6uzCn1VEAk++9doBHWXnAMBtGFHFzqk3GE/4sgNOhfH8MrG11dtjk9zx9YGcovUPaycB2S/pUlPAsMiSLrEUCH3bRhRpAdG5aNG8nd4ITnGAc0dN1HsluRyP9b9C5XS1y0+ec5zznFp9kW+Q2tPuk6lYebZkmdKQG6rSVfUpi20Qr6CjHcmhOQW705nKM4kBqvhKOnNT1sS0WTXzHADzvfe97/yO1ddrQVtND4HO3QD9tzRGpgzKAsHLWP2XSlbGMVDKNQDeYEUCagrITQHJoX3tlVEAmA2Dqnk8gOam+KMvWZHKa0UmuBXf6N604ykf0ng++6O7UNnmpSME2Mwj4KXJhR7YBIiKi/USGKGXN+/0/hgr7i2vhjnNCeUReGOxeYT5uTuFb3OIWQ5ZxjMbyObHFTmXMkz48aQQjbWKdRRmV05Svrnl+xoDAmBnIqAlcbimNbnKc6/RwvrhCABGAkK1yf0eirGkigPqS29YvoHhvS+g9XQNBZE0DMOk/rzMK4/Qtouo7Vk/1668LwuwSNRV3FiEtYmlTP9AChpSTalSnWwP0TQFutQ4Yt7zlLcenYQyqAWHSdwDNkxkCz0inuHpmoOSIWNlAQWHhXkfQDAy60h+Zp5UJtFg71e0PgPWLQ2YQM64rajKtsjth1TfgKfqgANTflMbvec97Rn6AcIUtX/vYrWVRgZ0DltQpa3rrO86O+m++V1Y5/c03zhS8Z199d0WARIJ5Yex3A54dTaf5ZD9by90xxyuIZ9RSwBzU/r4OUVCHNHiqU51qWeGHfOXmbWCOZ4CeAae21GOkIQBAOYh+DGVqo0tGxAGhKHGTm9xkCxg4mjOcFgZe5e005gESaQsZofbs6Yo//OEPj3fV3+VedTa9qo9jsq322/Zmn/TOYSLt9ltT9diCel8Z317QTZ3akJJrIAUKZyXpvp9pYneMfBtYwyrS+Gx4AJDKb4T53lDjUOoET54Q1dzISeqyXTLXGXVCrMXbdkee/OQnX+ZllFEbiaao2qXLWc961nHy5nd56rKqR6aBHG2asLZIL9s+o897PEeg1j33ute9hqwBwA79lxr6kO1uAu8ODHYJtU3WGUR/39oAs+YCXlyf2cqCMyAb8Uidpot5rRAgHA/kK4NU22TXBkOj0LFr4Z3SlFBxlReuPPuWwQhpDtMBH8dUvnnLfKkNpBPaYnxbU22orxGTQckl2ygHJHN4IHIcznC3v/3tlxGmPik9OIWBtP25z31u5AOEaARUKMciOmUHbVo7zZEuMGgTAUPtSXcFhnZewAoU1icWtekdIPz5IVIuRweaZE3XogOiP/trL3l+IZfu/1VkCJE//vGPx8h1wRSaYx97+ptJf1uBKKJM86x5PWc1BfS3CGTn9QDqc/nA5gOb6kQBjW7CJ6QXSZo/ObwwHJuiRKt55BRVMpKoon6O57BA5zmD6j/dgMGimq04G5km6uvuwOAD29rFjsS17ch6BpS0k0uk3w6NmoaxrSX7FAlaX6A+0sXsD2T7WUDujkMaqhGdsvDJUSp2QdM7htYhHUee3eknKzV35djaMPpa/FjYFWkYy981MEAOQvTzW3lyHAAQjmcDi+nFvCsaMSo2opRF2uwwCedEl0uotkQHIwlwCs212d86BBplZ0fuCgx9HR2QXVQhtrHOkVdEFQEcffuTRySVb92WrQwiN8IofdwVGQSt72LfcJLZo8jQqFWwkQ5VKkwJ4dZ7ZXRSpzkv5xaOGYcBHfXqTCOULMfUZvMyZijfQiD15mipcsAwRyqRC3AL7bay8ueFqz/sDYzoDGc4w8g3aopc5N2AijR+F0Ewx+Rw04S+003fZ913B4aOowMY8Eb0744o3dXXoGTbtsa4gaYul1ku51pXBDblPZO3U9sjMORUgGg1i8x1hShp4Q0bRbOsPF8Yp2hzXCdzwpk2AobyFo1kKC113Yw4MCfqCANbQLpACphdt9M/IPcd5xySW1Aii8rOSLC6MiCevwbvP9ylGzDkaOz6Wz7D7w4MrrvTSQSwc6BzfaRX71uAs40+R06LGwzaC8yxfsgXEQMMcF372tce5dcGQ04NjYhzHfnWOMO1veLUSFkOy2n2++RTBmpbY2gLGQ3tPpLF/X2iuhA5hkX9+yBMF86K6gdK5xaw2DcOiGP0y9Hv/D6AYR/dGI2mi/KwvuufdujX5RH98a7AIOKRLYSLoMg78uglL3nJlshnMNkJAAw57OSXo2cgNOiwE2XfYdQ3eonuBt7aYMCAoBMaNcJEghw1V05BC5WU1JkQjvwpWsrVecfPThrNaxZI/rjGiJs77wZOPXTAnIYCng6JPD4awZ7lIfpzkBQ4v/71rw/wuGa3pfW7euqjOxIXVXYjbiwtCK3wTUfqscf33YE6gHSOgshoNrdzrPrnxTFdAoRUW7Pe8xqNLGZHf1xjbUKO/u4attdru8mO1ltOe00D1mpFEYt49dBL37VHj7XBUOhWIQfOobMwOTsOczrnKY86NNGpRudczugDpu2h2TN0U1xdjRQOC3AZ13PkWV7vOFte/em36BJYyc2O8Ft76iDvd1TdqPJ+t0bxPsCWh7RfXfVHWn3S+pG+lU8PlO6lmOz8LtkZqLU31+X32mBQ0AlfEaCFU3NPbL61HgggEIrqTNsc+2hfIpFRp3rUCQixOrD6/MUzyrg61DPd0pMhZy4/+YzdM2IQ75F3dOXcZHOI38oFpPLIk+t9wEDlR8p4j9WLtU3GMypPG+VL64d89fotjWq//sTkEFm6z/opU7m1wYBcgnDevEiR+pN0W77mJo4UPThS6lwiMOhYUQZa+0MTsnNkUYfU/Nw/JDdPV09phqWjzmasDJLRcpL2/aaDOjLGdiKjvHdS0aL6KlOb1VsennXIQdXlWblI/lzvdq7d6sN0r0/6sh0EyqULlhcQAlvlMZm1wWDhMV9ucJ6Dkv4RKOXMVW01cVuwJz7xiaPTdYCiyBpE3bZR5jd7bdHCAtOWT5uRsjqLlC/siTDrUMaJPM8OYaDamB27E8lnzO1OVS7yfrvD5/eRurIH2kmmeub6ZtpeB6p/OR3NdQeemdYGA+fkZHy+851vmVsZEbXT4NB5JW4rMysbgJBF2EzqTGntWgDq1Fxee37XyUi5ZLHn2QAZR4rUT04eKj9S1vtAst2A3qujZ7K1N7dbG+kztyuv3z3PPNfjmUwOViaqXu+rpzzy28vqk3dInzyvDYb+20qh3N8zaKBwizjSb59rWQOYRpxOAob8+VjUyG4VPCuItGd9IkVFAQdd7WhQH+CYPoCrTkee5XnX83YjZjgGyUGey5cmXx2xetUXsBH56vJcPWTk48ono14y6e45XXB1JFe9ZKoT9bu6pb2vDvk4kpf+a4PBAUfzuAVd+30jNyUi2xZyphIptnVCHJoRUZ3Fnjk7UMhL0Xn7BFi1V3Sqjv+N64dnRsUZCs1AlCfN+ChHIXXoszSa+5+sdDa833M9KJ2qM57b7/0sH/U8l0PSANhz9SW7Hchrg8Fn4ZzaJ2R9yKFSCnGQZ2Tl326ALPDUof+Nd2pzw3uX1wZDFykcK3VOAGlC9Ix2gHDvTg6bIgBpJwDMvFObG967vDYYfPljpHcYZFfR1aepQmRAbsC8x50d+FBkJwDMvFObG967vDYY0PwfW3O47SZQuCTpaNnCcb4ZtADcCQAz79Tmhvcurw0GCw03kjlYhJivcvumwT/YChS4z8N3AsDMO7W54b3La4PBSl/qL5fnM4Sur0UD285OJbFP023/rCl2AsDM29vb8N7nPZomkK2hUz9fOOV0UcJ6osWlPyL1p2MWl2gn52/nndrc8N7ltcHAYe3FnSAa7W4wfQvpatcnXv4pV3+lPR8OodnxO/FObW547/LaYNjw/3/egGHDC2/AsOGFN2DY8MIbMGx44Q0YNvwf3nf1Pz6uJy8z3srkAAAAAElFTkSuQmCC;" vertex="1" parent="1">
          <mxGeometry x="474" y="261" width="116.82" height="61.53" as="geometry" />
        </mxCell>
        <mxCell id="FJv2uxmNR5FinH8oX0lj-20" value="" style="rounded=1;whiteSpace=wrap;html=1;" vertex="1" parent="1">
          <mxGeometry x="472" y="318.53" width="129" height="300.47" as="geometry" />
        </mxCell>
        <mxCell id="FJv2uxmNR5FinH8oX0lj-19" value="" style="rounded=1;whiteSpace=wrap;html=1;" vertex="1" parent="1">
          <mxGeometry x="166" y="321" width="129" height="303" as="geometry" />
        </mxCell>
        <mxCell id="FJv2uxmNR5FinH8oX0lj-2" value="spring cloud &#xa;binder" style="shape=image;verticalLabelPosition=bottom;labelBackgroundColor=default;verticalAlign=top;aspect=fixed;imageAspect=0;image=data:image/png,iVBORw0KGgoAAAANSUhEUgAAAHEAAABPCAYAAADcDioNAAAAAXNSR0IArs4c6QAAAARnQU1BAACxjwv8YQUAAAAJcEhZcwAADsMAAA7DAcdvqGQAAAASdEVYdFNvZnR3YXJlAEdyZWVuc2hvdF5VCAUAAC3ISURBVHhe5X2Hf1VV2vX8We83jjoUERVURh27jjM2Wgi9SxdFkGJXVEAEVCDl3vSQUAMkIbSEGpIQQnrvlfWt9exzbgkJICJOOfe3uLmn7LP3s/bT9t7n8Cf8h243btwwDLX5x4QBD5H7bgd/G2rfb9tUzoD3fe+2/xgSKcqoT4icqM+AYQB9FHwfj/ei70YPeom+Af4tcF8/jw/Y8X4PvMbDDQPLsvK9/Vau/3EU3DkNkVcI/8MkOlH288N/KWD75kcEdQ90oqOvBa09dWjorEBNWwmuN19EeWMRShrOoLj+NIrrzuBK/Vn+LkI5j1W2FqOuoxxN3TVo621E50AbetGFfhI9MOBI7if69O3dzXWRMO6MCpE2GP+DJJpW8CNhSqi9Az3o7G9Dc089qjuuoqypCOdqcpB3NQlZF7Yj4dSn2JH/IbYcW4HNOUvx1ZHF+PLwQnx9+D18m7MCP+auwZ6Tm5B2YQuOlMXhZFU2LjcXoLKzmKRWorO3Cb39HdTcbk97fSKjSRRuv/0Pk+ibNDVXwpIQe250k7wWNPVcQ0nTCRwo34tdJOOzA/OxOuVNLE54FnP3Po4Z8Y9icvwjmJI4BlMCj2JK8BFMDozElISRmKr9e0ciht+zEp7A/MQJWJryKtYfmIHtJ9Zh35VduNCQg7quK9TuRvT0dxmJjsbBJPJfmmPV09/cXhEusrS52v/PkBgizvNNAwMO/TSZnf1NKG89jyOlSdiVtwHrM6djccoLmJP0JGYGH8P0wCOIDYwgHkaMkPhXfhNB/p30EKYmPYjJQeFhTAr+lXiIBD/E80ZgWuIjmJ74BGaR0IXBl/BR5hT8kPshskv24nLLGTT31YI1oKklOapTqI78TYIdkV6djWx+pL3cr293PJLI/2oSPUEQ/QxAeunr2qgNZY2FOHh5N7YdW4mPMt7G4uCzmJ3wOIVPzSJxU0nYVBIylSQZPHJE4jSSFUMCReIUEZn0FxL4oGFygPsTH+S5jnSVE8MyZwTHYH7KBKzMfBOf57yHpKLvcaH2GFp6aqiZIrOHdew2qJ6CBVMKmOhZe7m/i+a+nX5aPltEKoD6ryUxrH00REag/F43yavF1ZbTOFiyBz/mrcG6rElYmDwB02kSpyU8QAL/bARMpdZNJQk+iVMM0jKS4mmhkaj9JFDHnUbyt0jUdZ72Wlm8NtQRgqMwK/kprMz4J76hX828+CODoxNo7a5iB2u3ehqJJG6AuioChc7+ZlS0FKOwIg8dAy08j/vZNkeej3u3/RuRyL7MHtvNHlzbUYqTlenYc2Yd1ma/jflJJC8whoL9K7XnAfq6/0eN+T+S9xeCQheJBve3zORkEmJkihAjxZE22Y456LgRJ8I9TQwT6Y5PoemNpbmV/1xNMncxYMotS0ZF62W0D7SSQJ88apy0EN0Mtspw5EoSduduRi39t3y5I/H32f5gEj0NpJ9RFNjW10Tto+m88jO+yZmPBSRvmifYKYQJXpAGhhBBYgI1KkFk8HyDztVxkSXiPBJtvzvHEUiTzOum8F7SYNNiIzcMM80JI7Ag8BQ+yZ6F5PPbcanplAU/8tkyrX00s+0MvM5U5+D7nNX4OG0OLjaesEj6v5REEsj+Kw3spQa29LbgUmMBEs5+iY/S36bPe4yCG2HaEyJKBN0ljKAQuZFliUDnV9056ig8x4PfgfTt+9AZcWOwIuV17GQ0e6H+GFp7G8xXKpKtai9FKglelfQOVgbfwoErv6CZuagFQPfYjPrbH0aio9BFd+03WlFUn8+8bg3eCz7PSJG93oIRJzwzcyEinKAdsRGgFto58RQ6ESJJhPG4I89dHzrmIbJcdZoQiV7Z/u9J0uQgTXngz/TNf8WiwNP44uAcnKzOZtpTjdb+BuRX7MPWY9TCjBhs2DcVO46vQlXHZbqKLnZYF6Wq5fdyu+8kugCGmRMb03ujk724Eqdr9uHLQwsYdb6IGYmPMqJUQPKgfUeTKME64Zo22bHw7xCGIHEoTQ6X5Xyo0g+ZW/9+oQ6g+xDOpzI4Erg/JnE05tK8rs+cipyrCWxHFnaf+ATfH1mNlEtbEHfqY2xMjcHlhnxGq61stwIcaeR/KInhuMxFoD0ksL6nnAFMGgmchfnB8QwgRmMaTeg0BhM+ZFJDJFLbzJ+Zb/QEKyJMwD4hg8jyiJCmTrEywsdceSSGAZJM5SSWMdnO989x14bvofuKSJ37ECFTPBpzGPRsPDAFXx+eg28PLkXquZ242FyAnLK9+CBxIgOhDDOpLpr9DyaR3s8gTVRDZH4KKjMYwCzG7KTxpgnm//gdE2SOR4hQ5XshoVOYkSQ64nwB6+/bkOiZWgt+iMmDSPSDnjCJuj5CY3UPaSujVg0WTGSwM8kbCZqVOB7LU/6JX05+iot1BWhkTnmxIZfBzWyknt2J6tYSpiUam1Xy/x+aYrhZByXx/ZYEF9Ucxfa81ZgfeAYTk0biXfo/G0XxwvqpIpICiiQxSqDD4hYk8rfgkyhNVKTr4K696Xr/XB33SDQCDQ+TSAZfiSMxO/FZfHF0BfKu70dzTx1TpU5LNX44thY7jm7E5boT6GbOqEhWwZyzS/dmu3/mlBUfYBrRxST5SlMh9p7+HEuSXjATOjFphGESiVQvl6AU+vsERppAgxEzDGQCo84PH7s5sAkfu/m6aPgk2rAd6+kI5P7AaEbS4/DpgXnIuZaOmu5K9HgD5y09jci69BO+3LcE+TzW2l9FEjudX2RnvlfbfSJRZrSfpqQTNZ2lSDm/BavT/4lY+pOpwZGYnEzzZAQ6hEik0JyAhxbsfYORT1NrIz3SREH7R2Ne4gSsS5uGo+UpqGNi3412G3bTwEVHfzvO1h7Bp+nzkU0y67pKSGKHR+K984u/C4n+CEw4pNaovrSwGcfKAtiwfwqT+FEkjoIxDaRP0rgmtdDtI5FJ6uXOvDlTN0iwvzNuMtv0mVM0WiR/bHUZibkJT2FT1gwUVGQycKkmce1sZwdb28m/e9FNMis7r+Db7KUInPoaV5vP8lgH5RHpF/UtQu/exN4nEntZbTaopQQ7j2zE0oTXMX3vE9C0kKI7DT5Po+YpqHHmikGHSBT+SBLViawjORInBf9Mf/owZuwdi6WBV5jXrmKOuB9NvVU0oe3UMgYuGvBme7V6QIPfHX21SMz/Ej/lbsTZ6iMktvXfj0TdVom7Xyl9a0LGX/oQJrETDV0VOHE1C2nnf8DPpz/G5mOLsD5rKpYFXsacvU9iWtwYCmwEiYwg0SLR30airvVxy/3WYcJ/u9zQJ5IdjMdmJozHOuaFgTPf4ELtcRJYzdZR+4xAl0LYFJTRKCKbcejSbmw78gFySpIZ1DVRHvKH/2Yk+pGniz5lOPuYB3bZBK6WTDR2VaKmvRTlLUW4WJ+HszUHcaIyFTnle7D/ynYECj/DltzlWJs9CYuSn2PCP5YCHEl/SWEq0LmJRPnJwYg8Hg2nzcMhktzw78hjMQmjMC1+LBalvYyvji9B9pVfUNZc6I2bdlH8bjpKtLk5RCcHo5Em9mzVfnx/cCXSi3aaLPyEXwgT+AeQqNtJA6V1NvrCiEzTLnX0DVdbLuNcTR7yr2bg4OW9yDi3A0lnv0P86S8Qd/ozxJ35DIlnv0Dyua+Rfmkz0ojE85/jp9Nr8E3ufKzZ/xbmp05g5DrKaYMn0BAxNG83Yxgi7VqX/9kAOr9D2u3Du9YfTLBc1O43CjMSxmJx0vNYnz0duwu/QEHNAdR2X2W60GbEOZfhWR7vEyZRo1LdKG89R01cg/iCr1HRfMnW8YRdzX0k0fm5MEz7ZC40cdvbgMq2YhTWHUJ26W78QqK+OrwYa9MnYUXSa3gv4QUsiH8Gc+PGY07845gbPw4LGNUtCTyPFcmv4IO0N/DJganYVrAYOwtX4rtTC7H2yDtYmDYB04OMYOUvb0uiMASRRiLJYWewAQWeFyLPtNzliKaFCUr8Ncg9AjMCT2Bx8gtYt28KduSvxbHyZFzvKEY7gzNNN7mJXvn9sExMTkaLg29SG2hyd+ezkx7fhPPVebxWuaJHIvGHkOjMJkMVJu31HVdQRHMROPsVNmRNZsOftd4bEz/KS6p9AT/I35pFf4CpA0EBTqPPU0ATSyHHxtPfMNCZn/wUVh18FZvyJ2Jj3ptYmDEe05MU/EQm/STLytR84gMePDI8TOF9Lbkn+RpK832b0zKfVP2t8x+2Ka9YmvCZSWOxIPl5fJw1Ez8XfIbcinRGmJfReaPRrI35PH6kcT5xkVuUnOw8xqP0i6lFP2L70XU4XppJ7aQJDmnxfSbRrXlxUVdTfz2Kao8h4eTnWJ82mZr2N0xP1KIkpgzERPqziRSUG2N0Y43+kJaEaKMeyQ8Sf3FphbRCxPJarZeZHRxLTRyHxdnjMTNlDMmmjySRvp9SWa7sMCZyn2B/q3xFuqyDq4e7ZrLIDbCc+JGYtnc0Zux+FHP2PIlFtBYf7HsHm/OXI6NkFy42FqC+u4qa1+ZN6lJ7+inwAb8jh8kS/C20z7RRJCqs68Cx0iT8mLMWWed3M9VqMRIly0iN1BV3s90hiao0TQMb0jXQiIr2c0i5sA2bDsyhv3gRsxIfYy+m5gVHUUBM3iUkAwVHgbpxSWkiSaLZ0rdmAxSyT0r6MyNR5l9CkBplU1BK9EeT0DGITda3huCoiREkSiPd90jExDlM2zsKsXGPYgZN9qzEJzAnOB7zgxOwIPgcFgVfwFKa7hWp/8Ca7HeYq07Ft0cW4ecT6+ibv8OR8gAKG46jpP0CfR7J621Db7/Wx2jmwQl5YEDfpCWCPB83b9rnNKyf5vdM5SFsz1mHwMnv0dKr+UVHYhSRvweJVkErWt6vG8191Thbm41dBauxat9rmJXMXI8+awoTds39aepoGnt7TARkThUwOH/lCHSmT4POWvNCk0jiplAbBUv0WY40WtA6GVvvQm3y/WJMArWVpndOwjgsTXkZa/dNwhcHZ2PrsaWs28eIL/wKyRe+R/rlbcgq3okDJbtxuDQOR68GkFeRijPVWQy8DuJKQz4DjSJGziVo7KlEe38TzWYngxatGKfRtJV2DvbRN2XiI0yi9C0C2sePbyJlgq80nsXOYxvx87FP7H6WT5JI10lkWkWmu/bXbsOS6FdQkafMSV3XdeRXpuG73MVYnPosYk3I9CvUGiXnEnYstS2W5MQk+KDwRaD5MhIj30RiQyA5gq7VoLc6w2SW60At1mIm006WRRKnJY7GnMCTWJX+Or48PAd7CjYi89IOHL+azDD+AC7X5aGs6Ryut5WgpqPc8tJGapWmgVp6aqkBdWjra0BXfzOT81YSpQS9k2COx07qUoWIFMHa7zCIpjCJ9ksE0FfaKjjf14kMR4jKrGorxZ78L/D9gZVW19a+Gib+bbRuLsfUuPI9IjF8YyOQvbFnoIsEVuD4tXR8c3Qx5iY9TaHKbMokEhK+8jkK2bRPmqYAxuBIHGrdSxjSNJFIkMQpGkuNIDHGOsZIzEt6Cqv3vc1OtAJpF7bi9PUsW6qv4S6tLuuh7+ojIfasBYUmzbHQ3wsu7GME+SZR0N+OALaWECFOkIJpHPcM+fHOIUX8xcy4vxOdXU3o6W3nfkeiO+5IbGI9g6e+w4a0WPx04iOzCsWNJ9nJrrFTtdj6HMUckdfd6RZBoi50NlyFqEAtl2/uqWJinoFvji2hn3nSM58kToInCSLHFurK1IkQT+t88xk1CRtBoh9FhmBEqkNQu00zaUoVLSY+juXJr+Gbw0uw79LPKG46jWaNkihPY7To/IrzVw5hQVg7oj4eKaHjOjeMwZt/3nCbO8570lK1ddairvEa2jub+Fv7VKa7Vp2hgx0t49yPWBl8DYsS/4Y1GROxPW8dDpcFUNpUxM7YYD7Y5ZvR971dPUIkWvOsBzlBSDh6SOVczRFszV2GOZq4lZBlOum3wiMpIix68vaWsPOjCTRiSaL5P2+JoQIZdZrVqe8i8ey3uNxQYKbQ/Ih8FSPFwYT9ali7w79/3aZrWA9ZK2phefV5VFQXo7WjydN2p412Jr9lOvdf/gUr015DLH26lkHO3Pskg6038cOJjXRVh1BH06+RLmWXfp0iMdxGEj3tI9QL+vuZnqpi6MTVtgv4qWA9lqQ+Z4twlQo4EhmMyF/9GhLtPB8ecUae/B7JlEk2KCAagbkJT2LDvlgm2Sk2QtJ1w1vjGepkYQJ9sxeNsBAHb8Nddyebu5Zne0TJGrSzc+Wfy0JFHfNJmtM+KoA/miPZqi4i8UhZItOYt2mdZGXoOpgbT2WqMyPxKXyUPQPJF3eiouMyuiDXoHxU97k1gdo8ElmhkHNmHMqKNfdXI/XCTnyQ+a7lbW4xLW9OErWIKUSgEXQnJHqa5/0206oybHpH2sf9hJbRLwg+g68PL0RBVQZztQrWx622VuDhfJjf09VICWmoj9oUbrwvjEj8WhLD1+q+FDGJ6uhrxpXaUzh0JgWVjaXehLDve3muUaHYvh3HK1Kw7sBkI85F2nIvlGFgBGYmPYFVmW/ip5MbUdJy0qbt/JXjKudWWxSJqpRmpNv723Cu/jg+O7gIc4NPuxxN5o7f7iEV3xR6BBlJEX/fAYxE00S3csyW3LP8eUkT8HXOQuSywQ2aJbdnH1wY7gaOI0c41EAJKRJsh+H3IJFnkSDr7KyPVilouDHtxA7kFR9AfUeVDYT0sU4uLVG5rBPPVcKffz0DGw5O80h0VsnJQO3/K6YnPYqlGa8yTVqLkqYC86Oh4b1b1C+KRNlii0a7r9MPbcaS5FeZnFMLLWjx4cxhpFbdFVhWmEh1kIcwM/AYPjk8m84+AfVd5VaXsO+T8FRXNSYaElU0kdEEDrcNLul2m0/iAAM+LbdsYNp1oiwdu7I2orj2LM1qq+JU14VCHYQfEqGpuIKqbGw6PBMxJFHDgpKhtZ9ycEsmtcJvNJalvIA9pzbiStMZlinTqjYNX8NBJDrzcKE+j/5oBiNDJvO2QjqSAI/A30qiDxHJBsiMrkj/B1Iu/oAqJsO9A8qfvF7oac7wmyPS4Xbn3v3mtFczE11o6avHhdo8xB3/DMm5W1DboWcuqIWsg6QZIlDfvEYknqo+gE9zZkeRaETSrGp8V0TK4k1nVL4s5SUknd+C8tZLdCdaeHxbEnUr3Yha2HEVqUXbsTDwArWQaq90IULodvNQChFBxl3CDVI/zA4zDlvz3rcO1KUHVdjbjcTfkZTbbbqr3ykE19XpbgZa6LeKkFq4A5v3LcO5qhy09zaaEoSIM/gk6iqSWONIdOY0TKIRad9yKXRXgRGU/Wis3TcRR0rj0UiNlyysLq5qUZuRaLfjSd1MOosbTuCTrAWIDYw1W22Od5Dg7xWsB7JT6EGVZcmv48jVoK1H1Qy5jXxQZDKjTpz3d5O4fCLo4ezTy7p08VPVXYqsy7vw1b752HV8Axr7rjOW6GRdnR6GyDPYlbJxNKdZ2Hh4ukeiFCGaSEEkatxZEwIz48fg2yOLcbbqEKNz5sVW9s2y+JO7HQ/TFDRTgMevJWNx0muYkjwKmn241yRK82zRrr5ZtkiM3TMaW46txJXGM+xINKMMZCxED5Ho+8L7t0XSp3BfNHSxc9X3VeFQWTy+3D8HX2bNwqmq/eig5RhgVHpDwRfr7IgMk6h9PYxO8yrTsf5QDEn0XNRNRDpNtCkzBY+UzeLg80hgfFLVWcYyFKFLHqxfhHUyEi0/ZAWr264g6dy3TLKfYgSq2Yh7r4lmPj0foLI1mD0v/mlkX9lJU36NgYymfOQLw6nEH0NimEYFFt0MZFr7a9jJU/H1wcXYkD4VyYXfWACmlzTc8Gfr1fFEHIUcSWQ3c7+jV5OZD052c61+ShZFpGIDt889XseINXEsPj00F/nX9qHzRjPLklycefc3I1E5jaKt0saT2J63EtMSH3V5m93ACf9eQcS5iNQ9mDI9MAqrUv6Fc3VH0NHbhIF+CuMPJzGKQouSW/prcaJyHzbnrMAHqVPwY+46XKrLZwrUZlroppRImdVZ14ZJlHw76UcPFO/F++lv0n2MolyHJjEkb30bkSOwJPUlxJ35gllDKeujzjIkiQMWTBRW78cnzGM0lxd6Fj6CgHsBI1Fmmkn+1OADmJX8KD5nPnq97TL9SgeFQZMUJZD77RM9Anl/Uai1ow09VfaalG+PLsOypH8yf34POWUZaOltMNMfHoDQte7jE+i6Qh9ThXqkn/+Bvv9lWh9Fp5FykbUTIvcRlL/kpfnaLw/Pw/n6o7QKMtvRnZokqqcM2AsOjpcHsTr9DQp3NIX8O5LoaeJUYm7KOOws2MScq5IVdMsWZN5db/NJ/P03icRgnYdGi8RobrGaOXPu9Sx8m7MES+L/jg9T30HKhR241kYfZXOCYQL9UiJJVEfQcGEjzW7g9Oc2+K20LZrEW+FhTGMgtDrzTWQV77EBBrNSLNXdL0RiP4OaGhws2Y2lSS+RxFF0rCIx3DsiZ9R/CxyJ7lvlz0+egKRL2xiV1rC/ag2L51tMmPeHRInCF7ruq9kQPaJd0VmCgxXJ+IwR4ry4p7A84XnEndyEYgZg7bQailYdiaqrK8WV5BMo2bpEv6L5DHblvm+LxIaSy7CgjOQnF6X8HTvzP7HXsfRb3ujL6EaYxEb2uH2Xf8SiwLOmhcOR+FuJdCS6wEa9bFHSs7ZCrrm31kiM9IX3i0RtvubLnOvlD5Ud55FZ8gPWHZhkSz3mJozHlpxVuNRQQAI1MhOOQN21kSRG+kQzpihkevHVoVmYHjfmJpncCn5nnx0chy8PLmSUep6BFLXRhv/cfZknqgEksauCJG7DouAEm1XQEFCkOTUCGfoavIIjb3anUEphC5YsfXmITvvvOHgtjv6lns1ViB5NoPB7bGp8KII0YSju62K6UIvLTXnYe+YTupZ/YHbiGMwLPIlP9s9GYd1xakKjpRui6eYtrNPu40jsQCP2F+/Ch5lvWWRq8htCNkPB7/SxCWOwNnMSLtcfYSfTYMhNJA7YUobMyz+QRNpsm9NzIwc+kb4JDJOoPObmmw4HX4u1FN51Bq3vfBgLk59F1tVfLEhw4TOb7gn1t5JoFLEcJ1x/Y9nefkEfeS2tn23uvobcskQGMO9haerLpoELKI8vGFScpCZpqYeGwHS+yrh5izDMnoBVekPvdfxyaj0WJD9jHdhGZ4aQ0VDw5aYx7NVpb+LU9Ux09Q1LYiVJ3G4kavGSLbngxa4wCt2HV+ivDXr8HqUG+KvftH8+75d06Tv6RNr6KBKF30KiyJKwXRBggjXob/ldBSU9TB86bA1OcW0+0gu/w6fZ07Eg6W+YkfCYrZL76shC5FWk2RodnSufbYEXy7p580nkUa/+A3QRl+rz2RHm2Lt4JjKYU/49WD7DwZd3TMJorEj7B46WBdF5M4m6IXsLe9m+4p1YTB8lErVEIqSFIk+PSkeSOOhmt4NFpCIwUWtQ/2KjQfZ4WGACdpz4iEnzNYq7h42+FyRKmBK0CAz7WLVTPleClZ9q7a1hbnwGh0risD13Fd5Pe43mcxxi4x+hHP7OnHAJjl1NQhNl48jzymLZ7h6DN+0ThZIpW8JruvqbsO/iT3g/k1F/4ki2WzK4cxmG5T0ay1Jfw6HSBHQYieEO/yc1TJOPig4Plu7BspQXaeociZE38jUx8ga/BkaiNDBRBD7gSLTHpJ/E59lzUNFaxJBdz/eFe9jtSXRCi94kQpFHbYsiUHOA1LwbHUbe9dZzOFGRij2nN2Jt1iTMDoxj/UbYAuglyS9iy/GV9nSvXp2pRUx+Oa4+g010eLMase6Sq+ZCr7ddstdzzk96hnJgfuiREinb2yFM4uskMdGmvGxywCdRkakWBbf1NyCXjfow4y0K143d2dBP5M1ky+UPI25wp/BJNCI9qHLTA2PxfvIbKKzOsve5aZSSopI+RghtuE3CdAINE68rpdE0lyzNQvz+HvMjzdSo620XcbIyA/FnN2F99kTMZ9Digg36/+AYG4j/KW89impy0NpXZ8RHzmcKQ5Ho319m1GSq1RE9dVSMRCxP+xcDk8cph9FOHreTock5bHLDJP6DJAaNROWxIRLVWzWy132jCedqDuPzA3OtUba03sZOhyg84gZ3ikgSI6EBXy0CTr6wGdc7LtsYpYQQTeLQvd75n7Bw1ftlZtTAHpmyG1r/0mpTOSVN+Thc9jN+pNlcwU4zM+De2DGRdZhMixCb8CSWJ09EsHAbrrVcdNNhIjDSjHpEDbUZgSTbV4r2/kacbz6B9UwLZiQ/zXvp/ave1N5tSdQ5EXK25S+PsDO8gZzyZPOJNlHs1edParx6azfNTEnjafyY9yEvHIWJjFDDJHo3toJlBvV9m4oMwmAStfpbMCITRmD9/hicqs6mRdC8nPxWmERfeD58oYWOy2xajqm1OK3oYIes6irH+cYT2F8ahx0F6/Bx1lT6uecwixohgUyxAQ0FDI9gYeKL+OrgclqiLFR3XkWHQngS4Uyyvm9HoutEIlCy7GGke40av6fwc8xi4DaZ99KrUpwvpBxsTnZoOYXgydtlBIxOmeqsZopyqvYA6+fN9nv18Uik/WalqzpKkXZpi43VqYfqYZQwiV7P8DHUjW8Bq3wErIPwHva0FL/nB59C3JlPUdYs3+jP6vujN66XhyCtMwtCk8mIsbO/ntF1Ka6StNPlaUg/txU/5K5mbjcHKxmWz2ewNj3wOO83GhMVXBB698ycwNM0qdMQOLvZBrMVpXYxkQ5NgxEIYWgzqs1ZA5lQPaffxY5Qjuzi3bw3g5mAHjDSQz5eemWyu7UCSOYukvc6Pb9nkMSPs2NwsaUAnVq5zug0RKIZJAqlh0JrYcJ9qioD76e+ykb+lY1VQbrhvSbR6xwqW3+zs+hNGmsz3kHG+W0Mcs4zH5M2dOOGrYzWWlOlA3r6uJXhfh2q20tR3HAKJ8uzkHVhF/ac/ATfMb/buH8yhfcK04SnbeGxQnO1xQlQ5uxRRsTPYE3Wu9h1ch2OlSehouUCfabeMaN5TGm2T5gfxERCJFJ49pH01KGcBnaxQ1V2llL747HxwGzMiH+M7dMLi9Rp/ek3ye9mEh1xHnkk3K0E9KwVg8G5wScYLS9DVY8ecGWuGpliGImEzVpTA8pbCrHt6FLMiBtr0agevBR+K4mu9/mIPqbKaznCvITx2JQ9Bannv7UVBk0910nYNdR1lKDcXtZ+DMepaZmXdiHu9Bf4nv7tEwprdfpbWMSUYCa1TasErH7qwabpD7GDjLLU4b3kl2m2Z2DniQ3YX7IXl5pO8h5aTd7prWJz1PhE3Uygg5OYNMEDza586DVGovtKfsEm5oSak53K2EIRqTqQT+BtSbSBEBHI+jPVm6QHjvh7WerziD/zNdoGGi1ajhp2c33JI5JmQznRQZqCxYkvYZpVQoLQw5xCBJmDKnE3UKUt+mWjNMc23V549zjWZP4LP1FLDpXvJX6iif/WRjy+OboEa7OnYmnqK5iX+DTzuTE2khGrx+ACJI8CsAdvDHpg9FEsSqHWkeSvDi6itn7JvC8N5c3nbcBfZqlXU1/9bL333OGtyBOceZfPdpGvPebOqLqsOR+pF7dg3f5pNH1PYrLSCS3D0IyFEeRr4e1JDEXvyteT/mKPDa7PnoTc8hRaTM1fss5GouozEE2i+pR8QlnzWXyaNZc+Y7w9yRtDlbane/ntiLy5Er8WoUpbox7kfR60R7tn0mzMoq+aG3gWS9NfxeLUv1OLnkJs3BOMmsdaUKJozT2w+pCtgY1lHacn6vn6Mazz41ic/DdbObf+4EzsoNYduBSHi7V59rKgrht6eIU+lzmclh7a8xv98rWORJHkCNO3k4ojzkFznb5pb6MJ1qu/Cmsy8ctJRr2pL1Prx5rP1dumtAzFtTVSC4cm0eCTqLFrrba3xxkesjRo2/EVKG89y4BGqwiUt4Zz4BCJZtl5oK+/i8lwFTIu7cCytH8wINCrK7Ue8kHEsmB7jSVvFJU/3gUiSdQTVLOpTSuZB328bzZz1elYmPy8zfqrEXY/CkWwRlIIbnkfezqvi6Xvm5PwDJYlvUGfOAe7T39qq62L286irq8K7ey9XUxdehi59kGvrNRbndywm59GRBIlyM+Zr/M+SluUOnSzA7T1N6Ga0e8Zmvc4mrgPU97BXKZJWh0owhS0hQM3n7hIDE2i5KF26e1aSvFkWWLjHsH7DM7SLvxAU6oXHnXRWHiRs1fXCBIJ7tCzct0DzahoL8TXDBTmJv2NvV/CJHks3CABDteb7hAKNtwI0MMMAMbguxNLcLwqHVfok4sajiFIE7oy43WaJppZnqsX2TqMYG8fyWuYGiRMwGoGQ5vZS1MubrVB6rLWItR3V9rDQBK43l7RS+2R2dR6UT3+pvk4kahhPsEFNDSRPE+E6rf774m6SXwnI04GU/21qOosRlHdEewr3oWtjH4/zJyI+cnPUB5jKHyaTa/DTaNs9Jjf3ZKox9TfpeJMYdtn7n2KPCzHmbpjFrOo3vbouWkiWZM59Z2j4By1GtVFITQi52oQG/ZPp5Mex14xyp4ftNdYSit+K4mqMBvkFg2/hvzqdAq/nNFnE1r76nGx+TR2ntqA2fGPG2mxJG8Gz52b9BiWZz2PT3On4pfCj5B+ZSuOXQ/iXP1BlDYX2HBadVsxattLUE9T18C8r7HzOpo6q9HUVW2+UKv6WoTeGgfu07EmnqdrrrddwBUGPUU1R8wPZV7azqDiM2w9thyb6PNWpr+OBSl/w4zgo5QFUwiSJ8hK6L9nsEfa2baw+bw9gYL/HKdIfFvzueyo76e+hfSLO1HbU8EO5UXPHnk+bzaL4TbuoD66MUbXc6vYoNQL263Hxep/e9HMRlAmjCAJQ1XkjsHKqpEKSj6i0y5rK2RP02NhbdSANtR0X0PGlV00k0+yZ4+0jqO3W8xNfQLLsl/EmsNv4bOjs7E5dzG25C/H9hOrGHV+gJ35H2JX/hr+/RF2EXqq65eCz7CbQc2eU18h7uw3iC/6GgnCuW/4zd+FX2EvSdrNTrOz4CNszV+Jr1muFvqu2z/FBq+Xpr5I3zQBM+nzbKGTmXaRx3yaPt1Fn2qXRwaJlGmNbjf3GSL3RUNlmCZSaeYFnmPdN+FKw2kbjBGBfm4YiSgSBVsgROjJni6anWKG9nvOfonlaa8x+GDl9ZRwUI0IzzXeFdRAQsHM+/vewsWmfLQrfL7RbhFYVWcJks5vZlDDgEb3Ui9nJ5qe/Ahmk8hZSeMZBI1nEDSO/lQvWRjHXGo8AyJ+MyDTSxcMCpKCzxDPYV7Sc9Sgv2Mhw/WFDJgWpT1P6PezmJ/yNOaljLPnMPWEUmzwMWrTWNMGW+yr1MXSF5Igd0LIXE5i1K4RmPDkQARxN5FIkgb/pgwNvM739RoYiGU7vjiyBKcqD6NNqwBFoJzerUl0m3aKRCOSaBtos5es7zy5gb3xJQqdGmmPZaunRVfo18BFbC4VWJD8LFKLt5s/lD+r7ixDQWWWPZfv3irF8zUg78ElzuHcS2bKfLaG0TwB+3D3iRBWCN458j0yhQznY/RuAD26ZxZHEfBITCJx7g3FLlix0J/f9p4BXedH6yzTCOZ5BiNTiG73YPh10TUutXiIAd1jWJMdg0NXU1BHM6+RIDcIL0XzNz8dwtAkOrjoTMt89H89XKgroKn6GEsYNcaq4ay8L6ChKnc7hCuvRH8MVmW+iz1Fn+Fg2R6kX9pGZ77IXrJgghIZIi8KLpcK51QSrMiIAPdH+iMTlA+VqbLtPP3Nc+31K+oMAq8xkmgy2VZN5rr38YhEnmfXqP6OKL89mi813Mn4KBFJouqo/+JoFYO1zCt7UNNVYcGYBVxRJEbmrkNoojadHAqxSaaeuRORZQwa9jJ8XxxgxBrPm1tFb9Xb1ENd5YYyLYJplAVLzBGZzswLjMVc5oJ6w5TK9wMG9yg4y/HIEXG+UEWoQnIfk5NdiG7/J5Sd48qJhOZLozuFflOY1ERd796/6hGnDuOfx9+miQruhMh2GRmOZEfK0G0Oy4Tgb18RZiY8itXpb5PAvajurbQZHRF4w6JmBTS/gkRtFuSEiGSgQyI7SGRFx0WkXd6KD7Pestd/TdUjy6qsV2HfNwzuYfp2v6Mhk6iB9ncpKDl0E6SEbMLWuCN/U3hCSLDBBwzuFSnuWCTC/xuNJ1BvXySUf96kuSzb/q8p3cfedKXJce0TwmWHUiwfIsbarDZ597S/I+Xgg+X49SIkGz3qNi/wFD49NAuHyhLtFdSdjEfck8J+Uv8rNdHfaFTtYrfUgHSyQEVJNQzbj1ek4gdGgyvT3/AGmqlN5vyjG+UnviF/wkaGh/Hc4K4b6CUp9j34b57nwQnTP+7OCR0j7HwdjzhH+33450aB949RXez3A/Ydw+tj9C3oXXQGd14YmkIjAWyvQdrE9joNCxPo/iZx1m7X/hCJ3D8zntqX9k9Goetw+no26jupgQPdzGV97RN5g/2hNv12+25Jor+pAIN9NGrYg6aeOlxsOMXE9xdsyV1JM/Ave52y3vQUG6/3gzIgYWDgRuTZEEG9jtBbp4aDvYVKWqIe7/2OwjD7QwIyuN6ufZHnDHU/H/7x2EGYRqIGnxsCyRNieY6dG4JPKju2/a1z/8LzHvTOH8Xc+3GsSnsF3x95D9n2v8Hlo7W71hvcltK40ZjhSQxvd0Ri9OYbWs16dKG+qwoXanOx7+IubMv7EBsPTqd2voZFDOuVHug/mFRCb7klk3a9ANZeAjsE1Dh92wiRQW9XHPx78D6HqYKGvXi9LYPQ/qiywveIxOD7R2M09wvR5wmuzJFsnxuIiMQ0I4/HvWun01zO4t/zg09gKdOatfsn4vvjS5Bx/lucrzyE+o5Se8uVxmSNME9ZIuFM59DbXZCo4jwieUN7YflAuy0vL229gOOVmQiwcj/kvY/PD8/GR/vfxaqsN7A88zUsYa65OO1V5mav2vfi1FcM76W+aseE99gB7hos08H9tnvod8Q5/n1+G1Sm8AqWGF6OwEs8zm+es5Tnrsx4Ax9mvo2NB2Kx+dgy5tyf2/ONl5py0dSruUH9/4pd5qr8NTPRPs/HPdVEFekCHqePLvCx4EfzauhA80AdqrqKUdycj1M1WThaHrSZ7tRzPyJYtA2Boq1ILNqChMItSCT0O2jYhiQi+TcipTD8tyvXlR2NofbfyT7v97ktQ4PtSmKbklmH9PM77MWABdcymKLl4ZpeBNjXgE7GFfbfLlDzbMGTZlK8VQvOdQ01GT08kb+ZxMEQmf6Iv6Zr9N+nayBa4bJDhw3kqiGdN9rtW8Rrv6DnJN072u4cukZLOgS9sMGHfqtMf78W//r30Sy84Oo2aJ/3W8eG3tc+JELneNB9+9g2aZoeSZPVkmyUtvkDKoIjMZxG/PEk6hMiMgxb/KQK3wLWIH6cT7ibT3R5fywkCdduazvhr4XV356k7BMdxLAd94PEsNCG+dzUIFXOt/fRm/ZoUNdgV/8+mxOOw/3aTBb2GUxE+Ej4mNvvNv/vwRh6uysS7/V2+2qGt1uRcDuC/ggi3ab7+UQN3m517M62fwsSh9qGEvStSLjVMX+7k3N+n033G+6e/rG7r9O/DYmDhTv478Hwt+GOhX7bh7/1iTj237MB/x8H0bLZuYCxSgAAAABJRU5ErkJggg==;" vertex="1" parent="1">
          <mxGeometry x="200.18" y="417" width="55.82" height="39.03" as="geometry" />
        </mxCell>
        <mxCell id="FJv2uxmNR5FinH8oX0lj-3" value="spring boot" style="shape=image;html=1;verticalAlign=top;verticalLabelPosition=bottom;labelBackgroundColor=#ffffff;imageAspect=0;aspect=fixed;image=https://cdn2.iconfinder.com/data/icons/boxicons-logos/24/bxl-spring-boot-128.png" vertex="1" parent="1">
          <mxGeometry x="203" y="342" width="50" height="50" as="geometry" />
        </mxCell>
        <mxCell id="FJv2uxmNR5FinH8oX0lj-8" value="" style="shape=flexArrow;endArrow=classic;html=1;rounded=0;fillColor=#dae8fc;strokeColor=#6c8ebf;" edge="1" parent="1">
          <mxGeometry width="50" height="50" relative="1" as="geometry">
            <mxPoint x="309" y="560" as="sourcePoint" />
            <mxPoint x="469" y="560" as="targetPoint" />
          </mxGeometry>
        </mxCell>
        <mxCell id="FJv2uxmNR5FinH8oX0lj-9" value="&lt;b&gt;Producer&lt;br&gt;&lt;/b&gt;&amp;nbsp; Topic: EV_Account&amp;nbsp;&lt;br&gt;&amp;nbsp; Type: JSON" style="edgeLabel;html=1;align=left;verticalAlign=middle;resizable=0;points=[];" vertex="1" connectable="0" parent="FJv2uxmNR5FinH8oX0lj-8">
          <mxGeometry x="-0.6875" y="-5" relative="1" as="geometry">
            <mxPoint x="-11" y="20" as="offset" />
          </mxGeometry>
        </mxCell>
        <mxCell id="FJv2uxmNR5FinH8oX0lj-12" value="" style="shape=flexArrow;endArrow=classic;html=1;rounded=0;fillColor=#d5e8d4;strokeColor=#82b366;" edge="1" parent="1">
          <mxGeometry width="50" height="50" relative="1" as="geometry">
            <mxPoint x="463" y="359.39" as="sourcePoint" />
            <mxPoint x="305" y="359.39" as="targetPoint" />
          </mxGeometry>
        </mxCell>
        <mxCell id="FJv2uxmNR5FinH8oX0lj-13" value="&lt;b&gt;Consumer&lt;/b&gt;&lt;br&gt;&lt;div style=&quot;&quot;&gt;&amp;nbsp; Topic: S_ORG_EXT&amp;nbsp;&lt;/div&gt;&amp;nbsp; Type: AVRO" style="edgeLabel;html=1;align=left;verticalAlign=middle;resizable=0;points=[];" vertex="1" connectable="0" parent="FJv2uxmNR5FinH8oX0lj-12">
          <mxGeometry x="-0.6875" y="-5" relative="1" as="geometry">
            <mxPoint x="-105" y="35" as="offset" />
          </mxGeometry>
        </mxCell>
        <mxCell id="FJv2uxmNR5FinH8oX0lj-17" value="S_ORG_EXT" style="sketch=0;outlineConnect=0;fontColor=#232F3E;gradientColor=none;strokeColor=#232F3E;fillColor=#ffffff;dashed=0;verticalLabelPosition=bottom;verticalAlign=top;align=center;html=1;fontSize=12;fontStyle=0;aspect=fixed;shape=mxgraph.aws4.resourceIcon;resIcon=mxgraph.aws4.topic_2;" vertex="1" parent="1">
          <mxGeometry x="510" y="328" width="49" height="49" as="geometry" />
        </mxCell>
        <mxCell id="FJv2uxmNR5FinH8oX0lj-18" value="DLQ Topic" style="sketch=0;outlineConnect=0;fontColor=#232F3E;gradientColor=none;strokeColor=#232F3E;fillColor=#ffffff;dashed=0;verticalLabelPosition=bottom;verticalAlign=top;align=center;html=1;fontSize=12;fontStyle=0;aspect=fixed;shape=mxgraph.aws4.resourceIcon;resIcon=mxgraph.aws4.topic_2;" vertex="1" parent="1">
          <mxGeometry x="510" y="413" width="49" height="49" as="geometry" />
        </mxCell>
        <mxCell id="FJv2uxmNR5FinH8oX0lj-21" value="Qlik" style="shape=image;verticalLabelPosition=bottom;labelBackgroundColor=default;verticalAlign=top;aspect=fixed;imageAspect=0;image=data:image/png,iVBORw0KGgoAAAANSUhEUgAAAIYAAACCCAYAAACD6LCHAAAAAXNSR0IArs4c6QAAAARnQU1BAACxjwv8YQUAAAAJcEhZcwAADsMAAA7DAcdvqGQAAAASdEVYdFNvZnR3YXJlAEdyZWVuc2hvdF5VCAUAAHOJSURBVHhe7b2Hm5ZVsu49/8y5znf2HkdFQCTnLGAOqAQJnXM3yTyOYRydMY0RyalzDoABAzqiomIEEUFyhs6xvt9d6326m6ZRRnRmz7mOUv2mJ6xVda+qu1Z6ftfe3m7/T/6f9JRLBkZHe4d1tFlMeM/n9k7pOq7tPOnokg4+R9Lt+67r6B7nCge76Nqt3NzF2qyFvy2x/5v9/yb+b0QakHreRVIXk/rYbzqm0Y8P5zXHrtLq19X1zy0ft0faO+veJaFsOqCVAyQt6CVIO5/bOSnSSVcdOaybRNcPEt0zOkfnIx1d1/q15ZKBgc4M7RnaC9JNQaqwVwiFtnZKR0w4XBI7vdk6rInvm2O/cWUqzu8c0NYMGDioo5nvGlBOPRdvDCc3t7Ta6ZY6q+1oiJlYpq63Wv4/a2eQ0/w9yd9jdsoO2wk7wLsf7YjttUO2B/nBjtp+fjvqx53l3RmO1tn1XE0QanCYCHSUkUI1tLRbA2VqokytlIkfQyUkTRLK1qwfG/muDjlLwev5gc8cJIO2ApA2rqc6ClxtPaQVBZwjqq7rRgBtQVSiJn/fm10uVf4FwMCQ5wEjVlFOb2xtsXoU2AwUdDr6tkb+NAsQUhrSwvUbGlqsqbGJ63ZZoK3lDIY7jhGPYspDGH0/pt9tu+o/sXf2VljutlfthU2P2JNli+3x0ix7uDjFHiiMt8V5d9uC9XdZ1rrptnDtLLtvXbzdvy7JHlqfZo8XLLQXax61/G1L7c3vSu3L0x/agbZddrRjL4A5AkhOc+dapI73tYAEz9RAOVUk6aJT+NMKStoAQzvSwXteO9poAuiBavlhETB6gqN3YEikT0AlcAiu7jV6t82lyKWHknN9nn8Ov8XcXUzaXOQKBZauU4AJyqm3ltYGa8X1uqIQgUKKaAQgDSiqCeA0e+s9Tlv+AUDs5tMu+7HjbXv74FJbs+0B+3PxHFuy8kZbsHyq5ay81jJXjrfM1WMBwFjLXD/KMnJHWEb+cEsvGGrphUMtrXCIZeaPsJy8cbYwf4ItyJ1gWWvGWdqy0Za2dIylL51g2a9N4Zo322OAaenri6zqq+fts1PFdtC2ApTPKMM+YHqW19NW13LSmlprMbxcG8ZrarbWBsDcpMoKBTGhXpJWKtiKx+tAN5FEoUG66vKu3RoT70PY1WtoeN3t8WvJr0A+VTFaQWcMlauMYmkkqrT4iIAjjhA8isRAPKZHYcEbcEgABd8qYtSihFpUL/d+Cq9wxL6yz2srLf/TP9sjBbT65eMsY/UwS1891DLWDLWsDcNsQcFIW1Qy0haXj7CFZUMtu/Qayyq72jIr+llWZV/LrLrKMquRmj6WUX6VpRfzfekAyykbZAtKB1tOyWBbUDzMr3FP6ThbUjTOstaOtJSlQyzl1aG2aO1Ee7L6Tlu+Ld3e2b/UDrR/SPl2UosfAcgRq20/hhc864bjXxco9Kp6Uzn3qHqv1oH+VH/XgQTv0o54uPCwAchQTPdGFXkSP93t8OvKpQPDY10D0kgFGr1C+i4AJWoNsRpEFu8mbY2cV08MlttFWwJSU1tEBeW0zxAoDtiOuq1W+NVL9lhlIiCYZMmrR1lW0RjLKR2DUWn15SMtu2y4pRUPsqSC/pZY0NeSi/paWvnVll4l6WdpVX0spfIKS6r8gyVW/N4Syv/LP2dU97fUir6WVNLHEgqvsIT8Ky2psK+lFg+w9JJBgGq4Laoca0uqJgA0QFIwylLXD7WktYPxSKPt4fybbcXWRbb18Fo8yXaCzAE82ik72wZHoZnjFDwcUjUqHKu3sODhRwhRuFHjgIdIOuoAh6QeaQhA8QYmcHAK0sppkv+xwBCqW1FFK6podYBEwAAUERhiyuhV9BvHtTRB9RpPW2PbKa5wkiseBhC77O19hfbMxiW2YM3tNveV0Ra3aqRllI637Jrxllw+zOKLBlli8RCMOtSSS4daSjlSMdRSK4dYatUQS664xhJK+1tCWT9LLO8LIABAFaCp7mcpNf14vdqSKwdYctU1llI1EKAM4pyBllQ+0BJL+cz10iqG+/UTi7hHCeArG23p5WP8dUE5QlhKXTnUFq671p5/Pds2frfadjd+5l6OAEl9CImookUY4FXewz2m1186ijyGACJwQFglHbWIPgMOvIrrW4dzrkCh6zmuutnj15JLBkYrkb8ZM7a4Chr9c5u3/BAy3Pi9iX5DWls6IJvwB8AEDUWJR+xQ+6f2xnfL7emKRNz2FMvOhSMUEvdx7Smlwy2xbBgGHmlJ1WN5HWcJJbzSklMqJgCGiS6J5WNtftEIiy8ZgZFHx2SUJem8Cr6TlGNwPidWjLb4spEWh+eJL+Vz2SjAMRagTAAoEwDgeK7D9YrHWFwJ9wOYEn9fPNjSK/rbko2jbUnlREtbPd6SXr6WMJdm5TvW2Xd1XzpAQsLcbLVNkNYmGpC7DxqNCJXrRA1IlsaN4DENb9PpQdyb0NhAhcLPfxAwVOUmDIv3AA1CtcfPCARymbH3Agunxc5vszoyktO4ynrAdah9j72xc4P9tSQZAjnZsteMsOx83HVJf/jBAEujZSeWDbC5uPg5GGQeBowHAIkYLsg4DCvjjcZwY2JgGU8ImcC5gIb3KRyfTGtPprUnuYwBHHwHwJIrOb6KY5AkPutaEl03GaMnV0+yRK4TVwZIdB9ek2uGI30trrgPXkVcZhz8BPK7HhK8cjpZToaVfLLcvq//lDoeRVPHAclJVHLWmtvOEmJQTqSnTkFJZGsBIJEQmiNgoD/xCwdGpy5/Xbl0YGD90B3Uai0QRRU4AgW8yeskbiXv0KI0FIjjTwgZDdZIHK1DQfv4/60fq+3pqgctZ8XttnD9NHugfArkcRig6AtB/APu/AqM3AcDXk1LH4yxRhAexsITaOEcl4jLT+ohyRDPZLyLJOWCwjE6todE19B1EwlNkoSKYchQi68Y0iWVAy2uagCvAyyh8hrOHWxppZS7aLTlFEywnLWTLWfZNHuCNPmNnSuARshk6mNEFS16Y2kmihBNO8HRrnTMc3ahQK9wNQGDj53AiL3vzS6XKr8CMJRGwhGg3+4NVVDqEQFDgGio67D6BuXdvIdM1eFcGwFELa3n4xNb7JWPn7CHKpLJKG63rLzrIHekmUXDLbsc4ld5NQTyCqSPE8QUyGQK3weDjwxGhEckl3dJSkxSywbGZJBLWun50nXMuRJdQ9fT9btLojxXTASM+fCZOLiJ3uu7ZEJLGllQBpnOIsp4LyFnwaqxtmDpZHuhKsM+P1ZK3b9FD3vsdOtJOwOdUGeZogpRxloQ8RBXmCTKVR0Yyky60li9780ulyq/AjBg3So3FfH0iYoIGJEI7P6bvATt5Hj7ITtGizkLc39nT7k9XBpviXmj7e7Vgy0hb6RlVUyyTNxxUiGtGaKXrkyjdAiilogxMVpa2TWdkkpoSSkPkhqTNL4L0nVcOinrhaT7cV0SrqHrRdcPImBK+uPByH7wGnEVhDQIanwlngwgJ1WG7Ce14g9c/woyp/6kvSNscS5EdcV4+9OGO61w+19sd+tbgIPUFtufxjvU4gJk/2Y8rPNRT1b4Qg0MPerH4DXU+9nKx5DK9maXS5VLBoajV4CIQBEBI/aef3gURdST3h190n6wnS0f2NK3H7V71t5tOcTjxDJSwypab5WyimEYm3SQ2J8M2UsuHm2pJWQAJaOQEQEkGC6dFpnOeXoNYAkt3d+TTfT0DOk/IT2P7ZIe1z1HAoDkuRIoawKhzUOOPAlpcVLV5WQ6vydNvpzyX2YpeVfYYojzfSUTLWPFGMteMdmefyPdPj62CWqqLvh6/uJFIZqus+Y2a411+zswInA4MNTzqW4CdRH8D+0SD3Jup5XCiIOC70VIz7Qdo13sARS77YMTJfYIXiJ73Y2WXXAdXoJWX3OFZb2O66a1zS/oZwlFQ2D641A8WUExhLBkPModG8BB/A6GUYjpG4wnwCCptMrofZCRvUoqmYeOTcVQ4Zzejuu6zvnX7RJdK6WULAbPFvgJqS6eJKmStBjPkSwhDCYVXWVJ+f0sA0+4pGySLS6aTIo72h7Mvdu2/FBMo9kDLA56eK3tOG3N3o0uIPQEBroGGJ39R/9TgRE6rxwFoRIxcXcHKM4CitO2n+p+a+XfvEz6eZvl5E+1bFpOcjH5v/hBxeUQvSvJEK6yRDKQxCJiOb+l0RLTyCJSyABSSvEcGCAFYKSUDcaziAfg6uVB3JvgZbqLG19GO1+cm5SNcGOmYPSev0fndr9edI9I0jtFoY6yUo7UsiFetmQ4UFLFIDwI/EP1gadkbx5lGVV4lQLqmw93oi4LCJk56yfbfWvvsPXbnrBvGt60U/YdfuAYXOyUtajTD7V2AiMGjg70/T8eGAEUlFhDzN2kowM3B/6bqeT+ps8t78Nn7N51d9jC/GmWiZETilFY1VWWUTPYMmRo9TLS+jOJ0+6iS4jjvKbC8lMgjikoPcoykjBqEsb1/gbep/K9sotzhePLgyS5DEZkrJ6i76Njus7R+d2vl+rGl+CxJCXDAMUwCOYghLAmrsL7UJbhlG8U5SMUkgInkBbPIe2eX8C1OTe5BC5SJA4zyBYC+uw1oyzztXH26pYc29mw2UlpE3prhai3e4dFT2BEXkM9zb8ZMNRlHbquw5dd/MBFn2MH69iu8Y8ggS1FhdYJGu6q46sT4Pmg7W3eZhv+8ZQtWXObLcybBhGbgGLUy3i1JVZfYYmlhIMSQoeTy4FwhmssC74hSYXgJUPcnAASPrw1ejYiYIxC1B8hTtKVgQQQIcpcYhKBIrTi84FxbqrbExjBE7hn6pShlJcyU+4MAJFR2o/P4joqh4AclXE09RtlCYhAnIh3ShTIKgFVNeAim1HdF6gHtXCMpa8cYX9/Pdm+PFvu4PD+Do3GouZOruHACLYIxDOy268rvwt31R1BgGKaRO4rJhzjXEG9mWFQR13eIDk2LuKnKr1SSIRBN7We4eMRYPGtfdm00ZZtu89y8qZaZuF4lKCYLGXLcEoHldpdjfTzFC9i/J5dKCNA0c4nHDQCT5DQcqPWizFKyQJKrkIgsaSIaYDADcR5qeVkNlW4/EpCANlDagWhgwxCr5KE4mG0ZHV5E6rKCFsCm0KWeAZeKaOc1oxklZMxQTAz8QaSLIyfRRnkMbqyIGUxKn+QrkxGdR0YA6qAJ+DASQBPItedQxkSKGu6yr1usP3t9Zn2+dkKwHEESlrvmV1HzB6tLZBSQkx7rHsA05xn1O7SwXE/9Z9+7+28GDAwsO7cAxTnAkNMWAUSIOpjr5ynXOsMAjAEkiYYxaH2r+3r5jfstY/utZS1kEhisVqfiJlESgp9C4rH6g8QURM4AIkrUi0/HBNAoRaKlEiCd4kkDSCkKqspw7NASFP4nFzCfUowAi5brVfgSMWoaQBB4x6pZA8peJFk7hHCE9yCFu0S8QyMlobR0vQKSU0Tl8CAqXCfFMhxciHnFwDw4lCPUB+FPoFDXq4fQrlc+nE/AUX9Il1eL5n7za8YabMrR1pcFXXZNJB0nXusHWSPlcy1jw5tpJGdtno8cT3pbEsLdiCMtBG+W3kNoJCcb9hILhEYigXcQdfoDg7eCy/h4Gh4XaLh4TB66h6jlivUtvicCjHrnXVbbfnWhy1r3fWWVTAJpUrxPYGBMmn9cvmh4yj8plbl5NJdeRDFbRfAoXPctbsQIgBAYjHn6VpuZMhpzEtkbxrjbjse/pKAq09SaMI7JVX0oaVeQYpJGuk8B2OSESVjwGT1T1TiqTBUepXcfQCWeIOIajKSRH2CwHEcSCKwOkbEWOVQHVTP0EnW3Wuovjom4ktz8TjzavBYmzROozQcL5WPh1s20f5evcA+O/oG6j2BheStsUXMRiHMB8N3N2hPuQRgcAcPYEJBeDlHhBcOdBBonFivTjD5QadK/K0m0Ryzg61f2oYPnoZM3WSLim60RZVTMaaUJhcaA0bMW8gTBGPGROkeryFGd/veJcT+cwVg8H0SRkslVKRXk8VUkcHQ0uOLh9jcfABBi06TgdUiq2RwWnPlVQDkCuQPnHsZ174cEPS1rI0DLHOjjoH/lPWzuKK+AEpZE/fH0yTjcZK5T1LlmJho3GU0oOjyNCl4ggAQieoi8AN0ASIS6u+eA5mPl5lXOcgSKofb/CKAXzLG7t14vd1fdqNlLZ9oT5el2xcn3kS7p4BGbDqhpBnPoX50Wm5vho3kFwND08wCAmIvPYWDQuYRCZ+Fo5g0NTdYY/tJZ9HHbJcVbnvBFi2bbvcV3WGLyqZZSoEUJSOiDDxDFEacxMHq1UfQpVi515BGythJxOKuMYshgSh2ij5zXRSaQhqYgBHiigdbvIbfFQIqRlt6hdJc4jiuP7EQz1QEKPEu6bTmLLKfnOohuG4yIYyfBRHNpIziKMnFCkm03ip4DKBKit1LYyNxyHxkHjKXMsWLK1B+hYVO8c9dKXEIHSpXAHMASPCcyZRjHt5sDqEprepay6qeYqkioppZBvdZtHaSvbA50744/g7eGF1jAuGhTfNK1VBppL0ZNpJLAEbsiM7/BBQsHvVWyWdFHkJspxsonFN0aMrtXu+nqPpyud2/ZrYt2XCbLS650TK9Y0odP2ohKKEi8IfIW3gfAC5ZrUT9FKGjKAaM2MBYAMBgS5B4y4q953sNaMloapFJ8I1E+EcSYBNxTFWPaeFYSy+aaJlFk1H0JEtdP96SVo+2+BW0zmVDbd5SjLKUULQcAKwbbdka9CqaYFlF4zhvNJxiJIQQT0RYEviSAEoCnmc+oWYufOhuQk+c8xQZXxLS6JAxRaLPEukhgCOQ7yjUcH8+xxfr3MmErYmWpPeFAyC4/S07f6gtWDveVr7zuO0+u1MBxT1Gh0bQQEh7M7yvF8NGcmnA6DxXb2RxSKV4B1mIo7JrwOM8aST+nbZvbNP3gGLtTLs3f7otLr7REtYOp5WicFp0NPgUgKFWqVRvmGWggPRidRiFLm/vkHIFylPIKwx0SaiMRMBAYsDQqGqyUlxaXDafs3H16UV4j7VDbe5rQ2zOyyNs7ktjLe7lKZa2/DZbsn6e/akk3Z6sWmLPbnrQnn/9YXt24/32l9Jse2B9nGUtnW5JL11viRyftGyyJa+aYKm5gLuIbIWMSp5P9Uio6mfxcJP4GnV9K5tSiAzhIXg3gVqpqfpaJAKIAB88h4cXD6ecJ4JMvVPLxtn8/NE2H52lbyQL2gzwS/6PpRX1s5zCEfZA7l1W+fk6O9ryI+2TFFXoaMJ1YJveDBvJrwQMeQsRUaUa5KBkHgEYeI2Yt4icSCA/HaRUB2zrqXX21MYky4Fspq2dYOkF4y27crwrIb6EeF05AIUqNaWFSCExb5GhFgkwAjiUyoa47ArmWA1I6dwEFz57v4MAgafwFkoKiVIXkS2krxtkc1+5ymY+e5UlvjrKHqucZxt2PGnvHi+0L1ves+9thx3Gs50kBTzlYD4V+/84748SBn+ENn9nu9s+tQ9PbLLCL1+yZzYvtAXrbrX418ZY/EoBjnvnEZKKA6EUYU0lzQ5ZhwBCHQGJd6Qp9DlAaCCEti5gBP4RkedUEXM8W0rJWK6lzrDBNqf0SkLW5ZZUc5ll1miOB8euGGsPb4iz9/dUYCH4RusZa29Sz+j5Ru0uvxgYziEVLXhVL5rmGFoH+Wc7qUabZg8JGDFvwUtTU6s1tjRbU1sj3KLWdta/Z698lG05uVMtHVedlk8mgMGVFiaipATSNB9xFDD4rIyjCxgChabqyfUTf1G4On2SOCeu9CpLqbmauN4Xd90XVy6iicAhUjgnpWgURiLNIxwkPDvIcpZOtGeq423j9y8AgrcAwFc+NnMSg5/B7GGNiSb8a75ZO9DviMFfo76alNjM5zAl4KyDRQN+e/j7qW09nmcvvr3QFq69EQORfq8ZbZl5Y20BoTKLEJZZ3sey8CKp5ZBayppM+X1KIaEinoYggCg0BmAouwljND4GU4zOCiHoAEO6SSRtj6/5g8VXX4FcCVD64nnxiIBnwZrJ9nRpmu04tJmSHoXfYYPGBp/soxS2CaA0Njb65+i7Cxn+56QHMBQ+UFcEDJ9W1kIcI641cQLHteAywoqtWgp3zDbuXo6rw+2uo/WLNKkFYHi1+nhiZLzmWjowlMOfD4xUmLj3T4ig4l2SOUedXcmV/QHHFSiV9LJsgI+fpBJ6MovHWWb+RItbNsLmvDTcHimca6UfP2c7TlThB3Z4j2Gt7cO8BzCwhrQ1tV+r0VRu/CENqJm6KkQ73mP19/coUSPBmoTXwBXqAMgpgHUSqJ3Bm+y1f1j1d6/ZEyUplvPaLbZw5W32UMX1trDsaktY/9+4fQCCd1M/xtyCyzEq3qRGPEkhRoCPgEFDgE+llsBjiibhYa8PPEuNqOpKgPHfFgco4ghTiYTQFLxkOnrKzhtmi1Zda6vffsj2NXzmpWxsh2dgSIGguZmkFtFn/Rd9Hxn7n5FOYPgIqSakdmgSqoChCamiv9Kafsdb8FYrvU6jsGPte2zb3ip7oiLRUvLEFWhFZRBIjKyWnexuH4NKPJT0Bgx5i+G0ODIUj7f9SS8JBaV9YOgDLK2a8EGMTSXbyNT1c8dZCi327qeH233rZ1jND6/a/vbPKZFSubPuC7QQqJ6yN1IXom/IqFXHmAjcEa+W+AHyhuok4ACl5WGCs8BfH2sAWs12lDsc4erHAMoB27Zvi/1t/Z8s6Wl4yIq+lqMpiAWANx9QF8ILNtI4IKhzC6+M6SGElwAMgUKeFe8jYlwoYEBwfaKygHEZHAZi6/M74BrSWckAyyFjylwzFD50o23auZqSHKaEde4dWuEaEQii8KH3vwEw5C1QUHOrs2CchtVxoCbj1VKk3Y0f2vI3H7LsNVNJ9cbCKcZiXIgmrlWztFM0Q7uKeKxZTYAidGAph4+AESOfSi+LAE7R1aRqQy2rBkUAjrgCFAoo9Ht28RhC1SSLfwGF/n2q5W77q33f8j5w0EjkaeJthzWA2ib1DFIf6UUA0GworRLzPjw3viQAIGRaVEyvzqFiImXwXQBIK56FVghQNH2gntB6tqXW6uFetejnaN0xe+e7AnusdLqlLSW9XDcWvjPOFkA2k8kqkgB6WrVmdWlCTwCHk095DAcGYaR4ooPD0/bYcH0CxFZkW5N/NJ0wHoKdVNKPRtTHFnHcgg3jIdBptu3kFsB6wkOIwCFASLqD5BcDAwmtiDcBGAolWmsZvIVAoXURpxtb7USLHOxJwcLe2rcGNz7D0teOIbUSP8BTwBPSKjF2DTm8SCKKSHI3KsYede5ApACGxjnkNdJFOIv5HX6RzjkZlYCGczJRSHbFKOL4BEtaPtJmPzXUniK+fn32LZSxF3AeBBQnASyukzKK/8gDaKS6EWzrNQChOzAECt6onj49SuDnvQMkEn53iRZJSdkcFgMc/zpF+KpHGzub3rKV7/3J7l93ly1cdwMcZIzP+cyuUsceAIE3JGmuqvMsZSFwDI3NyGMonHQbQ4oyG81gV0bj4Uc6LIXgllwZxmgUstdOsWXbH7MDHTsdDN29RfeQ8kvlfGBIWVrPwHsN7+r3RvRVyzFn0O5JXOpHJ2vsyUqykDVjLSMPElhIwQGFUs2MarnE4aBcoOA7DK3KukLkLTqBEbxGCucpG8lQr6IWCxUNtGyusah6git39osAhtSx/NsX7MeOj/EPe2m7lATDwpXd4G54yulCOTX5WOuJJQJNV9jAnN2B4Ws2ONg9SE8BEDFph4B0OBnRvWiREPBWTdbln2bIi6yKi2zZW4ybn28ZK6bZgsJrnT9pJDkMEoaBwhBO1bUf8xrowQfc0E3oWh/DORNIwzWYp06yIWR2fcmArrGMKrwuOkoHTIm5oyyn7AZ7e29JJzAiwhmFFn3fm9EvRroBQy1ECsP3Or/QdHVe+L0OHZ5GIWfRzGGIXeEXL8DQIV2FoyBetI4KUE9KlgrCNViVUIK30NhFpdAuYCi2CjhK0boDA2KWT+wtwFOop5JraKwgHYXMW3WNzXp5gD1cMdM2H1hq++1jgpi8xGlrrIdwYVNnkzI4xmnFxTc31VJmIUHtGbu1oCRCoernorriAULl1cKQ6LduEgFJx6EU3kDAWzU3QnoRmCRqPISV5jo7jTE00eA0zWZH/VZ7/s17LGEpfCh3BGRUIUKgIFshTHhfjqfspKzquxEoKn+PNwUwZDkpxer5JPshxGgoIQleMb/oMoAx0NKrR4QOPHSeBIjm5l9tL7/+Rzty5IiXVYCIwKHPlwQMn36nhoQmNEAWXCtIUMviH/fxVVTHWurtUMcxe+/wRvtTWTzucixsGoKoVkF2kVBIJYrlOtVBRUipAhSEjgTNvXBQqJWoC1xD5RKAgWQQMtLkVQBTKudn0VpS15PPLx1rj1XE2QcnCmmNO3HZBzx0tGpEF6M5KOTcGrUE8FQs+cSL8HsbrkJD023UIVSUU35KuF53cYDwvc5tbYVnEULb27QaTDcUOM4CnDMA5RTni4OYnSWkacLBGUq7o/ZDe/6NByHKUy1l/SjqChAEgIo+ziO8x1P9Gert1QDbecC4AV2gB/SkwTiN7ySWkrpDwhMBSzwhWEMB8VzzwcLZ9t6OaqvtOA404RqqM3ZzHTlv5LNPlxBngnN4w9D3srcGQnvnIL/jJ6qjNI0D5JMFCDFN5XTUWAisAyyq8H7I3upP/+pT/DPJEpIhickgOKlkEm5vHF5BXdrEytiIopQR5lRobAQvQYUiURgRMKSo5I1/4HhNtx9pmesn27xnJ9oThTn2xfF34RKHqO5pyF8dFVP3Ly6S4nmLpqjUwcut/EOru8KKeSqOXhogZbX15PmEAY8iMSDwz3/X0LX4ZngP1qiz+JQ+ozuULEWiKFcoiuTMDm7cJg/i8YuT0B7+lF+4D38pJZ867LuGPfbqm89BSm/2rvaMEsJp6e9pBH0tnrQ2vkjD7xP5jsYkcKjxeCghFCt11XvpUiEmRtq988/7QiTyxITwtSPtuS1p9m3Te3h0Le+kjGo0EuojT9fGL0rCwzKPoANXnvdT9c5FfqeD1eGjC8preEKvARoXKaKFdljHLQ/Zh6c22ROb03CRkCa1frlGCplYMhnXFgGDCqqiAgX5vE9g0WQWB8aImAAO9xp4lur+Nr/8f9E6+hOWJljcC2PtiaIc+/LE+/iAUzgt5elCN2WjRuJCKrhWkkdrWWT4Ziwr48vYDY3N1tisqfVBCa1qJdJF7PdoLgP/3Pg6P/pN59U3NPk19FnH6Fxdo4mwpN/1Xt83+6SZ07w7igAJjq/H6dZRVHyKfXt2t63c+jc4x2TLyB1uizRyW9bPMqvhWhDruKKx6Auv4QD4ZZJUMNiWVE2y6h9f8zCvhaIBFIg4GJ5OUJUVZeNOYMgBtAUu2RMUEoChbm15DClLWuTMGCjkOQQZLQ46Ynssf8crlr32VkveAKfQeIcWBavjpnQ8oml2gSx1zUHAa3T3GGLjApREXEMsHLadVnmVLUBRSStH2sNF8+yj4xvxUAeo5GmqqbkflEW1ETAQFVxuUSvf1Gb1k7duii2DdRd9L2NGxo++5xT/rFd9lrEdMLHPnefpfrHvJLqHjtM9wzXkMY4jCmM6D2BgEHmOWv5+Vfeevfz2QltSMMUWoINU0tj0SulIw+x4W/Vr9GLwi5V0dJq4fqC98M5i29Wwg8YUI+US2RJa0C6yjh7RZDdgqKH9pMcI0VkAU+wR4LiCuyH51VZiagOx/auz/7CnN95raaumWWoBwJBhybeTNF+BWBlAofELChylpuVi4JEbFM9QzISIepai1IxziwbAK3CLK0nDuPYbpMHKPE5CNOvbzlIpITtWGyQChlbACRha8hiFCr16a28iMMpwfCc5deasffTxdlu3Ptf+8tRf7Z5777es7AWWkZVtCxYutocefsReefU1e3PL27ZvP/dtxO3KA4Vbumdoki64GJfza0bgUHbU0iauoX0t+E2qo8hnmuEbHadoUj/al/UbIaRplrl2NKkmHkLd/4BEXeUJPsvsfINfrGRVwu/WD7AHCmfa1v0buR+NCZu3NFJ+6iFupB1GfCGpyq068bv0GHb76X0yMRwjREm98rkbMDgb4tXYcRK8HbTNu/Ls/rz5lrXhegjnKDII3KHWTBAqfHaTGz0W+yKJDTOH7uBIlMZq7YU6vQZYTvkYy1hDTv/qRCv5+jkAsZOqHfTg1QL021RLlcnRH0JJtHVT5DFkLInjB9H7A4cOW35BkWUvWGi3T7/Tpl1/g02ddr3dePMtdtv0O2z6nXfZHXfNsNvvuNNuvX263XLb7XbjTbfYzbfeZkkpqbZs+Urb88O+zmtLBJbGphBKInBo7S4lQQgrrtRwsPbYaqZRNXkqu5u0cp39pTLeFuVPs3SyuXSyt1RCSrI3nN6NfjGSWaEe5CGWtfo627DtRTvSttdLU99Qb80NxAKAq5EhkU8HBaKoLNYQ9dtcEBjg5nxg0Eo6NFBmJ+xAy1e2/J0nuPmtllM4zVJwgekVmhl1FbFSwIg8gtJSgYMMReIji3AQUtYwuUbd5OoJDd3kGkNJIx9Pf3myvbblAfuh/R+o8Xs71XY0IFzzHGP9BS49geHmCAaTyHgy5nPPv2C33X6H3XDTzTZz1t02e85cm313kFl3z7EZM2fbHXfOcHDoOAFH38+dH+fH+rk33my33jbdHvzjw/be+x/YmVoF3KDY7mFL9/ei6RWNt2mKglDjDBkQ0YYbqdVpQvHm71bbPetvt/QN4yCjeFeId3qV9Na70S9GNCc2mwaYvnqi/bV8AdzsA+5Xbw2tWkkfYoFvZqOyxUDRBYwuD3weMFQp4UCvOsHfEFc61K0K4hshVh8f2mR/Lkm3zDXXW1bRJOcLPqW/4krCRT+4gsARxkECMMI8BK1ETwAcmlCTACh86NyHz9U9HMARt3S4PbYu0T49WoP6vrPTHYcoQguGRqlRwYRavaoiqiC10mBeYNnBSEePnfBQISAIEHPmzbc7Z8x0D6DXGbNm210zZ3UC4s67ZvpnAWLm7LsdDNGxOlcg0nHXTpnmv69Ytdq++XaXhxkBwr2FhPed+uMXnyehrfwEEDhKB+8VZprwG7vOfGyvvvWQLci9jlRf2chV8I1L8xipJYMsE3BkrBtn96y9yzZ+vY47HcZu2upJ4U0pqTI5wmAMEEqoovdd/To9gCEsSO/eAvRBNaRe7bgZrTitx61Xf7XK7ls/kzR1qmUU4frVcVWm3PpyOMaVlkb2IZIZgCFvMRpgjAYUxD/v7x/iff+aVxGAoVBCSCEcLcm91TZ/vo4o+CMhTXtH1BLFQkra2RzPA4agE4Chrz/+5FNbuGiJ3XTLre4N7p4zz8PEXTNmOVD0nXsJvhMwBBIZXq/6ToaXt9B5Omf6HXc5KPR9XHyih5sJkyZbemaWvbuVFhkjpeIe4mZ1tET19QgYHUKzulz5PSp3eyOZUqu42hnbdqTaHi2fRwo7zrLQhU8j7MXgFyvphOd07cuRP9YyV06z1R/8BYtpP7CTNBpteEcJZVwpKiYRMNx7qNw9QOHAaIUxae9K1QMe4j3E6i1uaKrFSKfsh/rttvLdxyx79Y2WkT+eQoyAOJFt+FR/Qgnia0g1dd5DiWYuaYcbLfQFHAKGz7qStxjAdwMsnorEFw6yO5f3sRfeWmw/nv7CTrceRMlKnFGvACGlOmIpTwNgaOADrEnoV1x34snP+cXFbkwZPAJC988ChF5/qcyaPcdDTQSs62640ZatWGW1dQ2evtZTrDNIHZysGe/Q3EgKKBeOZ/G8Ve5EHA/9amT6CF6x5Ju/25L86ywTHWg5RG8Gv1hJozFqFdzC0nGWvWGy/bUm3T49/QZNWl4D0imjChDSpaQbKDwxuRAwFK+bOUocT9dQqiNwNLYKGCfss2Nv2NPVWTDqKT4PUt3ZSaXq8xcwwuyl9AgY/Kb+/cQyzUQSMOQxtNEIYODYRB8r0HjJSJu/YZilFU62mu9W2NmWwxi51tu/M/sYOKVU9dB3wLBb6hutofYMlWnxrYrqmposr7jE7iAcyIAeGniNgBB9Vrjw118oIqVz5s63+XEJzjl0fYWdp/76tB08fMSnItSj3LONwFqjd9J8M698duQKGNRB0aURPZ/BYB+frLJnXk+xrPUjLaPw0tJVASMDQp9Fg82Arz1YPMM2k9kdh9NoLooaUScoVB6BBA8iYHSS0QsCA2W3cpSugXWcrGpegzZI27xzrd2/4S7L3DAJZMpbQB7LNHnmak9V1bup7Qg0n0L9E5oh7cBwbzECGQQwtDGazumHdxlOTJxgCWvG2d8+yLLdrR9xS/W9qg82oFnzhVyhsYp0NMGcm/lAARsbIVZNjVZSXmF3zqI13xkA8FsBQx5DWYu8hbiH3suDKLNRinvyLJ6DgjfQslrUshwY9dZRTwUE7hjAfdQXK6jT7pB9ZSVfPIdebyIEjO/V4Bcr6jbIpPGlFQ22tHzer5tkq7Y/QmD+gqYGAZVRpUcXCurb8AQiqh4JgeMCwKBCbU0+4OQxnXPlYpq46PGO7y132zOWteo6yy6cQEsfTN7dH36A4CGSyME1oTUdvqFOLA36RMDQPEd5C3GKhIo+8Im+/NYPNj7K0jZMxO3damU/Loet7+eWInTqs+f+KkN38e94oxDSomlsTfbmli1kD/Pttjtm27y4pF4N+muJgCZCGqW4Aoq+kycR91gD4ZW3UDHlyZoBrrcwaTwCN+JzdwnZtQDjlO2z7cc22vOV2ZazYUqvBr9YSUMyyErSIKFamZe4erg9+UaSfd20FQue5Z7dgKFOS/X50/IFDAH6gsAI+1o3UnAxaE4WMMQ7cHp76j51Fp29fqrllI13LxFXfJUlVYV5BUlaskdh0r3bm1ipYeJSEU8BA64hgqlJKpWXw0n6UnDSs7xRlrRsov2lJts+bVT//lFAjMEhSepSdg1H4sDAlzRASIndGv394ovPPYWcMRuiODPObp0euMRvJfIO8hYipkplBRIBwrMfUtq5cfPt7a3vePlblIHI+2pKf8wDy/tGblvjUZpTqnBypH2nFW992RauvalXg1+spAkU6oXGHllVNNx1Q+ze8um29VgFje4MXioGDIFUca+FD22NAAMby4FI5b0DQ+hpoALNncAQuxYwPj30lv21IssWFEyznAoZu69P0hUwNEsr2af8q1s28AtfF1Kq3fK0k95wgAHrruT4yv+mAn0IIVdb2hri6rLrLe+zl/AVP3CXE7g02LP3wIX7u/BecyBaaIFtxOzmxjN28uQhe/nlF92dz5mbSPYwD8MFA/YMIZ2fMaRef6noek4+yWA8tQUQepUotNx0y012/4NL7Lvd33qhNYjXTCPzcRTs4AkB0oxn1jCW9idUV7/42/tfbbKH8uf0avCLlVR1LGo9ryY31Qy05IKhllU41Sq+X80dTjmvCaCQYGA8rrrCFSkU5S4IDO17rR1o2z33xhgYRLxDI5pv7yy1BzfMtez8yZahfomKqyCR2kQVfkGhkn2iiWZhhTCiYeQADG2BqDCCZ6m80lIq/w8u73LLBhipK0fYQ3lz7b3D1XaMoqv9qB9fXVWOCf6oDPIU2iCkzYe85Z4b7Y03qyw5JdH7G264abrNnJlkdwMQGfC3AkYUOm6+5TYHiK4nUMiLiITeceftdscdN1hu7hqfta2iy9FpEbIyFbGORv6qqzDs9BnmoysD23t0l72y5YFeDX6xklqm8SdEQxCV/SxFM+nWj7E125/FLx3lPihUoHC+Q2laeNNei401M/6ngOGESbvikxHw1mcAAZZ6EquqL1bYgpU3WWruSFCJobWmU5wBXqFVX77TDAUL/GIEx4xzjhF6PdXTqUnAV1pyxX9zLMAowWMsG23PVi62nfUfE0Y0g0HDTerDlJ/C/pKuP/zT/MUGO3bsgD3z3FM27fqpbqg5cxMw1By75da73IA909TocycJ/YUSAUseQ+8FCA8ls4PnmDnrLps2bYIlJc63T7Z/TMoKzOXpKLqPRVK7riegAA8aYVMHhBUv2dhab2VfvhpbV6OBRfUga4wJT4v+fNxJHkGGdxDo9yBh2EHDEJoWSCaIbhNofFqCGbd6sL3y/sO2r+MH7o1ROzlGBAxNYdC49U8CA3yLoLjrltuTmRrsUMfntm6b+MUEPIIGvrSnpVaAaRGNVoyFYXNf/q9RVIARZh0BED77Nog+LnK1pVT1I/4NsKxiOMbSCVa07VWc3B6UdAxvUcc9icsCAPc+Ryhgi2I24K2qqYJozocAhpg/A8PfeZe6ti/N8JcqM2bOsDvxGrfeeoutWrXS13XEIB28B+4v1Ef16ylt9u73RXZf6U2WXTTKstR7TKhO29jXUqu0cEmpbGyZgYfssAeH9BtWvBG6teOxlmxUkARsUtcBDXdtf3tyU5LtOLuVBn7aiabHMyUYigyAUl3kPqh2YWBwlgv/FIIwlabi72v9h638R45lbdCUPRVksMVVDiMNVT/FGAeGtkYK2yn2D8Dw2c4gv/yqGDggqOrlBBSZmppW0NcWrbreNu7Ig53vJwYfQzkBvb0pTUqVHzl5+pQtX7nSPUX3NFQt+FI9wqXKDMoxc+ZMu/nmm+2Pf/yj7dq1q1O5mlr3c9PrPjmwyf5cPddy8rVZPobXfqY12vFPOhcwRgOMcT6xSVs6aVM6zXURMBLKx/Cq6Q6jCCPYoqYPXIPfNvS1x6vn2PZTr9PsjuMVKAv3cgbsbDiMnchbXLAfw1028VzAcAJL6xXx3FX3tr38doplrsfgPweMin4XAMYQ7/oWCc3gNWVDH3u4YIZ9uO91fJLmKZ7C+Npg7KeB8ennn9nie+4hbNzugIjcem+G+lfLDEAxe/ZsPMatNmvWLKupqTFNxNXMNyn454DxXe02e2nrAhrgWMskDKSV9wMUl6O3AehZ6X93YMhj9ASGpjzgOWiAyXqSAuel5l1tfyy5yz44rF15LgUYDo4AjKZ20aPTtuP4Rntm4zzL+DlgUEgtlHECdA4wFCfl7gg/5XgLQJK4to/9rSbFdp79FPCd5LbyFtqr8qeBUVldBRhmOQH0Dit5i3+zp4hEwBAg7rjjDrvuuuts2bJl1tAgV00Iga8JJD2V3l2O2E5b/8WfLWv9RMsoJPVXmKi4Ar4wABkBwQ/LDHyBVmco6QKGxqRSBA6AkVjxBzwzjbBwoN2bd6u99UPBrw2MU/bRgVL7S9lMy/y5UPJTwOCYUIGw7UHimr726nv32sH2PR6uNDmxa6Jq78BQL+fK1avIRG71DqYohLhhBJIehvpXi4Bx112UC5k2bZo99thjduDAgU5QRJ7jQqIdksu+f8lyNkwl1KJTdJVIOElAtwlK/2MLky4MDE2nlMdQUnCZh5LM4kG2cO0NVvPt2l8OjMAxwpCszmlqCx7j/R8K7bGiOyw7F/Lzs8C4KgCieFIPYCg7EVlVJwxucd01tubjx0lSj+AxSEEpXLsD4MLAOHTkMNnIs3br7bd3ZR6Qz8hz9DTUv1pm4i3uhBALGPIY6enptn379osGRi1JZdXeFbYo/xbLKBhl6WpMFf19s7YEvEWyVsFfFDC0gPwyfu/nwMhePc3KdiwPHYi/HBh8wFvonGYygEY4xju7c+1PBdqsFcT+ImAQ83CFWv6vzq40Uqq03GGWv+NZgshJwEeyBBgVg38KGN/u2mkPP/qI3TZ9ugMj6p/w1/8B4BD5jDzGjTfeaHPmzLG33nrrokAh0YP+avatt3uLZgAMQgZ6EpHUto96tEYy/OJigaFQot0LM4sAxqppVvjJKzTxw78cGD6LR8CIkU8BY8uu9fZw/q22oADE/iQw+seAQZ7t6aqAoacExIDB8RJtjKJVa4VfvoDHOG31mkTC/RTFfgoYIp73PXC/A0OGEDg6AYJRRER7GutfK6TOiDKTW265xYnoxo0bPW311JUK9qb4SLRYumZvnj1QMtcyCya6nvR0JhHPhFLtijy+BzDOJZ/iGEkaigAYSdpTo6iPZWg1Hx4j/6OXaIIHfxkw2nF52n1WoSRKV5WVbNm53j3GxQGDFEsdMOcAY5ADI4EK6SlDKYUjLRPvU7ZzKVfXXEjFrp8HxnsfvG+Z2Vnef6EJNNFglvMMgPHvzk7uJKyJeAoQtxPupgPgiooKV668RrQq7EKi5Y1vHCyxh8rjaTja4RDdAoykcnlbdRjKY1wgXS0by6s2XNE5hBI4RmppX8suHWJZq6ZawccvX7rHEPnsCYyHYbY5ebDiSwCGdsNNQJILRzgwyne9xtX1iCu5qJ8Hxgcf/sOyF+TY7Shf3EI9m56RAArnHP/2UDLTOYa8hvoylLaWlJR4GPm5jESirRrfOFhqD5VFwCDL8IXgAsZYgIHh4RlaznkuMLAFwNHuyAEY2mbhDw6MLG0bsXKKewwN8l8S+ewODA8lAOOPubdY1s+Sz58JJYinXQXDAcbomMfQA20p4EUAY9vHH9mCRQtDKFHoiEIIr+qWjjjHv0vEMQQKcQwBQ96jrKzMV5tfHMc4Ya+TAT5YGmfpeSGUhAf2ibiHsSctfvblnOcBY3ywBcfpHIWSiHxmrphiedte/OWhpDswxDE0sUNZiTjGQ7k3/3wHF4XsIp8RMLrIp7ZW9I4aUrHM/JFW8o1QrKcdN4fwxb3PB0UXMD7b8bndc9+9dstttwVDiFPEvEQnAe1mqH+9zHR+ob4MAUMhZfPmzR5CLsZrCBib9hfZ/cVzAUbYVlsb0GoxuCZUa0acusQ1LJFRGp6cFIABBymbEAgq5FOhRB1cmn8rjhGA8RJXP3BpwJCRHBgxj/Hu93keSi6ug6s3YIR0VZumKivRkoOM/GGW9/nTph1BfV2Upphx/58Cxq7d39mjjz/mwPA0FWN0Dyn//h7QGQ4KidLV+fPn23vvvef1ujhgHLfqvbl2T+FMn1OrtF7PbVGPcQI61k7E2sBNk3C0mX0ABvZwTzyxExje81l1haVjj/TCa5xjFG3XmNQlhhJvvQADk3jn0wf7iuzRoun/pMfo2Y9BxXCJWlui0cO03MG2atujdrDtR2DRoBLxTwDoCQpJAMbho0fsxZdfChwjBgaRT70XQP79PaDBYyiUTJw40fsxduzY4cqV1/g58ilyWLJzpS3Mvd0yCyGZ0pl21UHnCT65WsPqI9D1IMvQ1MhzgDHJM5eogyvyGGkF13gHV8WXKy+9HyMCBtUAGLXe8/lE6YyfH0T7GWBEHVyZWnm1YaC9/PZ9tqdhF8Cog2CoNfUGCkkAhno+c/PzIJphAE3SSUB7NdS/VkQ+xTHELaZMmWKPP/64HT58uBMUP5euHrf9tmHHS5a97mbLJvvQ/E3tda5N7bTjn4bXw5yXgT2AMRJQBGAoXU3Sd5XiGAEYS6ABm6ADl9DzCRraw+ytAAwN3TfYx4cq7cmKuyGfZCXef98bMLRgWTPF9QiqoZZWPMFdoYCkrCSAQkP1kKFK4iXAeO6NBbar9nPucAZgqOdTIMDlnidtiGaCmpVV1tjdc+MJG3cjGkDDKLjuGbMBB6+9GexfJnAc9154sVtuvcVWrFxhejKR76vR2tINGHqNRJ9D3Q/bLlv5+Z8tfd21lkVY0BZT2mTFny6Nl5Ce1di0Y0AYdtf6ncDfEksnWBLEVDPptLOhHk2eCnhSCSX35N9um3drrOQUepSq+ePzesOwuxpfGHbvHbi/86kkrSesVbOwOQ9swDFabWfdP+yldzItfQPEBq+g+ZvnAiOQoXQK4g+tU8E7N3KFW1AhLTSaD3Dm41EyqrVr70h7uGSufbC/xmNrCwWlGB68lCSL3YRXbYYW5gtoheJXO3+0hx992q678S6fADxj9ly7/c7pdvP0G236XdN7N9ivKZ3GD13xviAJEb9RWe6cNdem3XCjzZ57t73+1ib3uZLWtkayE23gon1GxDkI2ei3SfuktuoJUE224+xm+9tHZCTF2h1Zj8DQPM4hlq490nmvCVIBGGFup8+B0ffiIhpLQaephaMtwzfD+4MllPSxeRv62j1FM+ztg5vQc507CpQKMPAWbVqPcdb1rJkj8iYXAIYOPI7H4CROFrp0wr62L2zlR/dbZt44d11ae9oFDO3pADAAhYvP/sbVaYde7eMtFKvnDjDFV11t86v0IN3BhJpRuLjb7fXvNhBbD1kjBRU0wvaJvQND7u40UefFV9baHTMSbdacRF8ycOdseMZsMpVZYQbXbyYAwde8zp7j3Eazt8Rt1IeicHb7XbMoS5xNnDLV7n3gXvth//foUC3S50chcuPolYpIxUrP+cYbg5ZNvH8s3+7fMtWn5KXjBcKMOA0hYHi+S9XMLoXnC0g63iKzhBCkXYkIJVohOD/3avtjVbx9eHIrwKAscrsCRnMEDE2n1NMiACtyAWCoAqcpLfGQ87TsQDMXj9n3VvjVk5ajzdmJdVqpHoCBC1N6BDC0bCBDgufIKIEc9QCGzxKvGWBx1X2cTGlD+QzYcu62Z+1o+/fW0FaPEkOuH3gFcOgMJVq4HICqOaxvvbPNUtIX4TFovRjsDgBx5+w78Bh39G7QX0kiPiMgCBwRSKI+lJmz59nNt82w62662fKL8jG46qCmpbl0sgZ24MWJvfRL89X/ze31AP+M1exe6gZOLkaf6DYChT5LPDT3AEN3yaCRZpePtwzfCO9KS5Nn33CN/W1Ljn3TrA1xuwHDlw5oal/YFiF4jAuFEke29pOiQk2cDzAaqIk2Lqna/ZItKriOwlFwQkM88S8AQ1P7BIwBiLZIQroBQ713Ot5Xtldf7ZuxJ3CcnhaUunKiPVu10Hae+Qe+4QxqhAhRcJdYoZx46pV4rLDYgOs4duKsPf/Cq4STW2zG3XfbXXfPslvuuBXv8dsCw73C9DtdBIbZWg0//Q7fMkHeY8asOTbx2ussZ9Ei2/ndt5QZT+DL6DCCEKGUXJ6CeshbaE5oM+RPc7RrW4/ahu1PWnwevIGQ4R4DIAgcyUUAA/k5YGgRWGa5NrYb5Ns4pZfh2dcOslc//CO09nvTnPQuYMh1dXEMzRG+IDBCJbTZGC2XCjgweHMGV//G3tX2QMmdvuuv1owkOJnUomXcnIAB+QwyAGCQZzswtJVSAI5mbsVBpLT9sbY8SCU7yVg/0R5YP9ve3VOAao4AjAbXn4uU50IsVgrthQQcFEory99+d6slpabZzbdPx1vMxmuQuqrXsReD/mpCKBE4xCnce8Aror4TrTW5/sab7cabb7OS0lI8tdbnoM/YQ/rb1fOJMRwY6BVcWBPfN+ItNNd196HP7LlNCxwAvl8Gho4A4rO9iwi/PxNKUp2DACBIaXpFf0spGGyJa0ZY3pfP2Ak7iHbhMp3A0CsfAK8yPgHjgnM+20GvNgZyiwjgCiX4PeW/Hx2rtKc2pZJfT/Tw4KAAHPIGMnzYW0sPxxU4AAaV0CigwKHfNT1tfnkfm09+rTmMqfCMbK6Vs+pGwslThKuvKCugjIChwktUEbFoFUYalfPlx7N1Z231urUA43a8BZ6C1hutXf2tJAolCh8ChD5rZbzWsspzjJ8wyf706GN28OABL6frUXFDRE/uLhQ/hBHqpLniTUR+7UD47o5Keyj3bgeCgCEwePig4cnoAozzjJ5g6CYpeOpkZYdIBtlK0rohlpM7xdevyoZatnAuMFREeWONpPPxQsCgPaL0evQPx+AkPB0Haye/U/Z98ye24sNHLFu7wBRpJZrGPigwLT8AQzKYigggoL4TGEpZB3OcVrfjMbTzDsDQ/uKZRWMtc/Vk+2tlsn16ooxiHzsfGJE4MFoJMw20xjAN8Ls9u+yxvzxht0EAp+PG7yB97c2gv5YICBJfXzJrtocPkVDtzDNm7HhLSEyybdu2ocxWdIibdmAgAoVcdwwYMk4L34dN0k7b/oavbf3mv9vC1bd0hhB5BwEhykQintETDN0lLDfQZGwaZwleeuUwe7T8btt+uhr4CRj1XpxzgRFUK2KvCHEBYGiJYj0payyUaAtAThCqj9teK9rxki3YcLNl6AkDVEDeQrO/BQwvnF4BgU9vd2AEEWB8QjAhRA99CU8gGEhqRUxcP97u3XATxOvv+KofveAhhMQq0CkqNdynpZbyIZCmFkLf1g8/sMS0dLvh1rvgG2FPi99KRDAVRiKOIRKqlXBaniiAlJaVYXRyK3UcqdB6Da0rGEJ14i3/rAlga1GzFot/dvhNe6H0fstZc70bX4BwT4Hu5Cn8VcDQ+x5g6C4im/6cN7LCdHSbvGys/f31HNvd/AH30tBDXdCv9BkBQ8XkO6lXAOkVGEK65l16R5cqEzOQOrl8gGdnrt2ffzdp6xQKHriDnkiY4DOaR1pmtYimCi9gBMlAfNNTyGly5QDPTJKrB1o8n7MqRtvCkomWvmqMPb8lyb498w5xF4YOKRIgI3C04+f0OIyAGPhzO/l4q9ZIEDWJ41s//MjmJ2XauIlT3UCRIX1lOi1c2YNcv1p4lHJqOwO96jid08kbCBWRROMwkeh8Ec558+P9eAFFO/ZMnHytrd+QR8gGFGje9eeblJwLDGV6MkwjvKMO567NYY7bLiv++EW7b/ldtjB32nnG/mckjcaWuRnyWoTnWD/Kw3Txp3/nTnra8wmKgMcQX5NeVR7pVsLnAIoLkk/1wIXtePxIxXbeard9rRL79Og79mRFjqWtmYLLG0U8I0Roijqpa6rS1gp1xyq0CAwCxhCAIWIKkrVnRpW2WCJlVVgB3doWOrt0nGXkjrb7iqfZ2z+s8QrIQzV1NDnJ1MPgWsIWNaEGTpA181p7iFNR0Hv89Fl7fcs/LDNniWcIbmSMqtVhDghauIwv969WrvcCjXiBjhNYZGQHg8ARI5V670Djd5HLufPi/Hitbhe3uO76Gz2EaFunsEUkikXbvqLPgSFQUObIY1AHdW41EK5PdRwFFN/b+weL7YniZF9jk5UXdgD+xaIxkuo+lkmjTV830e5bO9Pe/q6QEHIQM55CU2HGurcvgbQbMC4ECsnvPC3krLDBaqxCjhGx1hY71L7HNzFNX3WdP5NdD7rVE4i0r3WKppYRGzVI1h0YmcpQECenlXrS4DU2nxiYrAfOUZn00lGWDZlNWTPYXticZd+f+ZDiKx4SKqhK9AhJlcOB6rFbaddpa2wmxaX1CTPaguKd9z60zOwcsoObfGMTGVpg8D4HWroMHPEC9xx81+k5+CyjCxAKEwLC3XPn+W/RJCC96hx9L6J5HcDYuOn1EBpaWikPqScabxcwVE4HBqVT2SW8bcYS2sSkHljsafvIlr//R8tZOc0W5k207OKxvRv8IkWNdH75ZZZVPtYy1kyzp0qy7dvj6go4hibPUE55W4W6ULQIGA4UvgyZ3wWA0QrqAzBkEUE8nCjWqm2Iq7/Ns8UbpsMz1Hk1yOJLtCc2bqxyInxjtAMjDPaIgA62LPVp8KpMRSmqHsSSWEFuTtiJU9wkfmYTUtLyB1n2islW+slzVOMbV5ye2qP7KqworDkCKFd7KzyoDVDANZq1DTK/i99pT809e/fZn//ypLv3KdOu6/QAAkOndwAsku7fO4C0/hRQ6LO8iU8djHmfSHTdK6/qa4lJKfbFV19zT8DLjYODRX94V/Xehr3YKZD/EIDRQljRQ3VqyUK0F8jrP6y1BwrvsgX5k21B6UjLgrf1ZvCLFYXq+ZWXWYq2iFx+o61+5292vHUfJtSOxdrhp4lyoT/KowgXgcNDC98rUlwAGNqrkmMcGFQsBgxVSm/1bPFPT75vT1SlWPL6YOzEsitp+WQkFZNA7BhCBAUEACKhCiECRvAa2jNDI6wj8RZjLF7bJKsymjUOmHSttFUj7fGi2fbBoQJ3s7VUqAGgqrczlqkSF0G8Njzzimr9dtgcrQGPIWDIpWv/TfVzzIuLt9Fjx7n3iHiGOIVaftRb6d8BFnkVgUhg0G8KG/Im+k2h4/obbvJraQVcfmGRnTkLzwGR2k5a2xwE7AZgtPr6mBhXo2zRLnlajqHO53rC5Zdn37PnXl9kGWsn4TFpGOV6BonW/fZu9IuRlKprLKHmSpu3ZqgtWD3T3thZzP30nAh05Zviy2NQNgGjGzgcGD+1AazArbTFgaFYrrPBh8ChC2h25n7bbas+ftRS1xMmZPzq/oQRrbaeiLc4Fxh6CH4WDDkAQ6mX+j4IOQBobskIH2tJqR5lCRyTVHy1ZReIMI2zF2HSX9e/4y3LH2THvTWup2K5BbwJChwBGNqEVR5DnkM/a7M0ySm4R1FxqRt61JixNmXqdW5k3wEH3iGjCzAKDzpGryKWCiPa1mDS5Cl+nnbpEyC0Z+iPBw664zpbR0BAdD8BQ1s7qsNKfRPa4zB072vHQSlX8VvtK3Q+a8vtvI9esoVrbresQo1Cw73K/wsdanln70a/GEmpGmgJG6+0uauG21+qF9k3Zz6hJBpWb0A5mvMiYGijFEyKvmTeLmBobY96ai8EDCQAgwsJUgIGIrKiTctP4+jfOrLa7q++1g2fsVHzPIfBLyYSJrTXVjdg4C2yyVgyCRnq8NLDcbWRSjwyrxSvUT6K1BVeovybLCUHjpKzbrgtWXuTFX7+gu1r/S7gneLUU25tAONW4Y/28WglpLTosRMUXB5NwBBI9Cpj1dU3BqPhTj7Z/plvES2jq99h7LgJNnTYCBsybLiNGDXaxowbb6NGj7Vhw0fa8BGj/HeB549/etTeeGuLnTx1JkQF6YfrSwQKbUntXgMtN+IRwjYHAIP/xdeCcikT5wkwJ9uO29s7q+zPhQttwfpbbEH5eLzt1ZZY8/+Z9rTozeAXK0mV19jcCkIJfCX/q1ex1H4aOuDUpl++5QHAED+jLL4LeCcwVKGf2GReJ7iC+SBkOc8QUsQzEI0BKs36snGLPfdeimUUjPHcWZmIQoOPnRAa1L8RpaxZAoV3j6sHj6wFspkIF9Gz0BVK5hVDSiGvOZtHkb4OtYXwj6xcGHX+bNu8p5jWdQLPESaSiISqHAJHu7qcm2HZctl8QYmpKOZAFOsl+k5bN/u2zjFMNRBvfjx42D7Y9rEVlJTaK68tt2dfeNHl1deWWX5+ob3zzru2Z88PgBFFco5EQJBuPMHgg0aDGykQave9rSTe8DgmiMqgsggo6ozW8+OO22dHt9pTxUsse/l0u7fsVkj8SPjZ1Zay6Q+E4qvwHuooDJ1avtSzFGLvoqGHQOzVTRDtjaEGGD0QSF0Fc/L62uKS6bblUCl0UzO2xMloUT6VAhQAXucY3cRTWO/Y/AmP4QerYoKBYhII84ecgCqfRQVg9NDamq832IK1d1KxKXiAoTbTHxorHiECJWKq+RiQIJ+XocG0WP8/hfeNQHzyjtZMDPXxFu0gHF9+jcVX9yXtIvXNm2R/LEu2t/ZVQHmPWW0LVDTaMpoyumAkVaalTRuuaBtnykqZfVtkj/Oh1UajswKXyKwkbGQSApIE/+jHdLOs11luFt2Er/QzgjZiErK18MhOrqbzdTFdGABrF+C69uM0pYPobI99fLrSnn9rkS3MvcUy8vC4eg4aOlE3trbDTCOrUFqvDkHXFbqMnhXvj/6WrioGAiDtvd7f4iD+6TUDLb1qkMUV9PVHmqasnGTLPnzUd+rTVEF1g3sEUJli3l86VL3c3pRZ9XAv1+nhegFGlKUqWmqOuB6ooMcthCfg6EDdo8m+Pv6FPbvxIUvLvYGCjra7a/5gcRQ2IB0QAIpUSJXWQfh7B4xCjLptw6Mq9EwwbY/gE4VV+U1DLe7NfjZfA24Fwy2Da/+1ZqG9tbsEdr2f8oTRV3XMYHdrbqCM2i+M0jaRpTS1kJKprDFg+FRBCqwN5s4DRsx+ARQOKX6Xp4RIogRxg/OAwXm6TjPXi4AhnxH20yJ264Jnw4XbGzWcrqURevDll/bhqWJ7+YMllr4Okr5ulGWWazfgMabnv2UQTrXDckYFnE1TEgjRARhhgzs9F94f/02DSiLzSKzoh3fug6cdQBjvb/GFeBp5kNXj7YF182zLvkL8LB6PJqWSSQcOiEjkdamIPIUajSKBpleoPhcJDM0sqgueI0akONefZarnrVZ+s9ay199GJSdb4kb1ZuIS3cXh7mIVix7g3/WUHgFjYAwc4hbaKohWU0YYqh5s8zb2tTh+08awvrZi+VR7oijNPvihFCr6PdU8QZkayFS0Gy/Vbm6DBML1Y933Xk43bjfDIl43RHULEgyrWqq1BGYQsokwFyQa7u86V9fnK/eqAgn/XPRsF4UxLhBTvJTeZGfbD1Pa3bar9T37+1uLLXnZZEvbMAHONcGyK8eRqpO+F9E41B+kx4IhPkWym8fwmVnoRgOW/gRK9R6TwSSWaiYcuivG2xRB8iH1yUsn2fK3nrAf23fQnI9gvVqyOnxaCAEUXGWLvVIhGT1s0K8N+AQSlftcUEguAIx6Kq78V9rQBak7la4ngn124m17sibTMvKngl4qoHETPEEwvAASqxwVC8LnKD4KFJ3AUHjBW5RebXPL+5LOQlyrRloOxCwrd7wtXD3N/laebB8eLKANfAMof6B0ZwhrhBdteka5tdeYwmgEhk6JuU2JqkA9kaCAiANoPoTqqfqqhYkkOn1EadJFBAw+cnI34XourjCEG+gZbPUtJ4Cungx9wD46UmV/Kcu0rFU32YKCGyDY1xJ+x6GX4bR0sggNJ0DYU+FXKXiKMEodjYloyh5eQw3Hw6+2rOrH5/54Eki/zi0cBoGdaEl4oXvXzrQP9+rBPwdxXOpBpj5UXLjoXl5vNJRVIUbg90bi9fwpYCChNXUHBu7af+T6BOMW3Hddm5jGbqv49jXY9a2WnKeH1UOA/CmBep65QgUIx+DBIyhcRMJ3CiEOnggk2mdK6yH4XInL1LwOALOwAoDkI2tG2yNFd1jVzuftkH1C5X+kPchVEgowvno+lUQ5EHqIt5DuouauFiByDci9Uho8pL5RVqHay6NEwBCoBK5OUOg6AqK66yUCZusZO92uckn22jt78+2xwmTS0lstO+96MrRrIeFjaeXSgToFh1ta1XDvOdawgnQRjU572JXX8MYkHaEfwJCsfbnwzKmk96n5gy0H75O+YaLNXzrGVr/7pJ1o3md1HSettvWsNUA0fcdf6uBOQ9h1Y0djYqIHAkion7/GwNBdegAjRE+Bw8dPdNXIVYIsbdSq3fy+rn0HrrHQUlZcC3rxGhV6bGQAhz+gBqMHkokrBBROohwcAkvkPeRhiK0AQk9RFCgSiiGh5VdbJtfJKBmAUvEia0ln10y2lR88ZDub3sNzHLRT7adx2bAhKqYOrsiAnRKBIXKhnaKK8kapjtK5NtVToPAuKg5XJtQDGLx2xg995obtpKvWzPnNAtURAPud7bNtVrD9Obt/3WxbRKNZiKdIL5hgacVjLF3EWsMG1DO1ijS/bKDFEQ4SCR8+AIk+1Gsc+Jj0g7h+SGmLtS6YECIeUniN5QCyBYVTbO5Lo2xJ/kz75PAbFKsB22A3DKpxRxfKrf1eQ9UVJmOJhXpnPVPxH1xfvQKjsyMGDQgWARy4WrTirUXKRdrJDpQqyl2e1BN7fsi3RwqTLJM005+E6CJgiCjp0RPaGUZbLanPIjDs8HisqDVoH/L+KE0TfVAQwNBDcVIrdR2UAdAyqq6xxRvHAZDxlvTaOHu8NNn3lTqFuz6F7zrVqo1UUQgF9XTVK9UFlJhWgsTqEUSA50BP6hVedK76HSIJwAjvuSYXU0Px8OqUVXNVz+CxDqOLb+294+vs8bIEW7KBdLT4Ngj0JEtYR4MoxDvg/fyp1RhafEzbTsUBej2WO1XeQyHFQREBA904J0MXWgNcGgMG52QVD7VFxZMsbdUk7/5e98UzdrTje+qHraij6i0upKppd2igiyXFqaJIoIQiBgzpRA1e57nezpUYMEJaqqw8AocU0qlc9azSPNsbm4jveqbIETvY8oWtf+85W7Duegou3hDIZUirBA5tyiaFRMDQyKyG6JWb00JiFc/gHD30P8M9h7YLuorzSMM24XXI9eMKtURhlC0qv84y4B3Zr91ir735iH11Rs813+tA1UiENlTV7qRKJEMLCe5SdTjHg0ikkEj43o9xCbqQYsRFAkUVB9EDffToSj3bVPfTw/9/tMPNX1rh9mdscf5NtjD/esskHU0lvIpPpJdTZzxCgg8eqi7a8YZwS9hMriSkamER4dX3Y/cQEhNvNGEhl/STTgNJKyNFLRpgCyGl4l/zXhhtj1em2seNm/FWh0Joo/waNZAjEzA8E/MqqhMiJNiiCMreHBiRHnjbExQSX4kmLqEPgXgJHCIogdD5BTzx1534vaXO6lqPUaAD9vmhd+3JyjRLySP9otCaf5iOu0wBHKlVmvM5mJahxbkChlZuazmdCCmtIwaMMJmYGBsDlnJ2X3ZQqXUsStU0OQhXTL6eXXStLcqbZgtXTrVH8u+0DR8+YF+f2oSR9LDeI4DkKCICpueM6jmoUohiK0ZXKJCgNCmxEyh6jX3XrgfitYjRay9fgUyACM+EO+XbW3+P7PawUfXNMnt4XQItd6pPfcwoGm/pxWO9/0Y8QVxKYbXrMV9qLFq4JV6lbQ6Usst7dgPFBYCRUnIF1xYwyPZWj7Z7C++0qv2v0Sw+o4RHvR6iTYqOmNEd4RmY+dkWz7liwFA3xD8JDPlNfXCv4Ww1uFMHRqRAXQT/1N5Emth0CoVpC/MjtvG71ba4+BbLzMe96WH0JcMtu2a4zcm90uYV9be0GuXjAoYeOx12DvbVVZqr0QkMhRN5HXET0rkK2Du5/vxKdYCNAlxco4hUtjg8hTBznZ64OMTuWT/S/rR+ui3f9KhtP1INJL52AnjG9iOHUIO2dNLKinqrgx/VtjRaHWlMIyRCPEJ4aFfdCZFtLepux+uob6TjFOccQ+mHqeVeD50nyIy+annd1m7/sy1Zf6clv3atLcy72RaWXeedeqHPRoYWP9A2BnpwDxwhkliI9fRT2YbIeCcwegslIdRqQ1iBY2HVCMsqGm6pa8fYix8usB22Eah+YofbvrM2TWDBZgol6hBUtiazAQHqInAE3tgFDA7UAT8JjBBMiT0hvkYdQhEB6wKGfuALyFtzUx3Epo6vG21f+5f26gcPW/rK621x0Y3OB1JJqVIxtj/CAkVpJ2EtUkr0HWLUv0EFqbwqrj2ltC7TpwLKteJRdGx8+ViLKx9ncRpnKRWoRtJyhuGmhxBWBtsSPMzCoqtsSe44u3f17bZ4+W32SN58W7/tKdtR9zpm/ZZWvs/5iLqJNWqrJ7BoOr0GBiWCjLxLB0e1Y/42zN/snueAA+w0gNjZ8q6VffsyKXqaZa663tLWTrFFZTfaosrr8WKjLaFA/TShazqklzK8Qqq8gzhXJMFb6PeQvuu8ACTXhcKrAyNGPmPgyCAMZRCGMtTPQUaix07cW3q75e5+yr6yLZRxD+2VVLlZj7rC0xECGyEazdhSJtNn54zUNJBPjCnDyq6IGn+vwAgHKZwELyFgCGl69XTHAxZnaxxcwg3bAUcTLrce33WGuLv9zDv21+rFtnDdbbDxKcRZjFY90rt75xfoITaBZwRghKUIYa6ouoMDKKQUASbsRa5HZ+kpSeMRPfUAsFWGKYRJxcTckj6WVd7Hsssvx1MNspwNk+2ewhvgO9Ms6ZUJlvTitXYP2cEzm+6x/M9fsrf2l9jHp7bYd2078AE/AIFDQEHe4AgA2A9cdvP5a9vf9JFtP1RlZZ++Yi9U32sPrJ1r2ctvAfTXWTqASMudYKkFSj1FouFKSjfhCl2AkMj4ARjniL7rCQpvIJoVHh5aHIWTzr4friuAJBb1s/i8fpaDDnJKJ9q8ZfIcU+2V7Q/aty1vY3YtEzhs9f58d4XAVqtravBnt2FZTKZwKvKsdFWdgRhfgHBQ/BQwZHwO6g4MJy6810TXEJP4pkGjr3zme/7pFJSqrVzP2AeHXreH85JILeEARXiFfC0wIj6iqJC2iowJGGNQyGgUoHCiliIXKiWpx0+9pjGS6qIZYgBK3xNa0kj1UkVqS/pCSv+A/B5ec41lcUwGaXMmoWxBybW2pBwyWHSTpa6eaql4spx1023h+hm2eMPddk/uPLs3L87uz4u3+3Pj7aG8efbHDbPt3lXTbcHSmyz9lWmWtnSqZQCG7PU3WA6kMrtoqmWVTLJMACtSmUomof6XuFL1Rg4IRnRuoFYuCXzJw2WnRHWV8UNHlsKPGoW8Zhcwog6uMPFaBDZRPaOevWhXHbhW6WRLz4forp9qz7+xEJ61GYB/j+/bZ2faD2ORMP3R1+bIqIh3+fvci1gHV8zW+vmngYHtI2BEY0LuOdrUn8E7UXuN2KkfgOMiYJCwAIsOXPcRe0ObrRTOcg6Qlgcw1IULgQxjI1TWgaGd6PQ4C8VkFBrzEqELXSJwCCRSnMCj3yGwJSicLCe9BmXWoDClw7jmVFh+upg+ykuEuScVS9EABS+TSevKRImZxVMAzrWuzLQ8KXWKP9NjQfF1llXA9xvGkVFMtOyCyU5ws4o4p2iiL5lIKxKhhDsBiHTAmUor1sryRPVEklqnANTQwtXSA0ACCKIezUjCCGp4pj1pamxhloARnhCl8CuvqbqrUchzSoZTZ46rgncVXWNxeMhM6rawahqhZZJlrb7enq/Ktm2HimmgO7HHYbzHaQ8dnsbGbBu4gTK1kGREDsC5Vg9QSM4BhlxLT2Bo3882zfTBDfn4ty4u8sbxeh6cJtQcx5EcbTsBOHZb+bfP2gPF19piKp/pz0rTfg64WLWACBgaZFM4cU/R3ZNE/EPGFSHV5vSDXTSuoMk9iRghsQJCWj7a5kNo5xRfbXNKLrPEqr6WuhF3XT3A4lF0fClxXa7Yu56DdHZDU56kEoxbDAcCUElcXxlUAsaMx4jxpJB6tLYevaGZamq1SQBTz4PTc0FS8QaJxX1tfv4fLIF0OrR+tWgZXcbXZGhNc+wumpIQpiJ0gkIj0Q4MpaR4FQeGGpD2vNBWjWNId0dYHPdOFOCq1WOKvoqHWXz+MMA/ybLzplrOsmn2TEWm/eNAiXMOZVLNrWcdGA4KuX/xxFg63gpR1Veys+x9YWDE+k4FDL3tyoHhHXJK5EJ6oIxPdvXABEY4Rh2j9Vy9TgJolAkctA8t77N7bcmGMbjzQZaNgsODbgIIFCJU6dAatIAJUtoJDLwFLU/PWVM6q6lvvkOMUje1TMVzWm1yJedXTgAcEy2BOJ9Y04/Xq8hmkEq9JyZznkR9B5rMklx1jaVU4+IBTnIVgKjsC3fpA6D6WRKASqrB2NWAT1PlIHv+bFgByEEdCxF6BUgKDVorml2t/he5/C4vJ28gAGiSUmbx0JhogrQmLoX5KgE8IaTIyzg3cY+j3mEBAz15Z+AIvOFIyyTLE3dR2HKwc8/UCvSm6Q2kylm5hD/S5j8VzLXXd62G9X0LDk6ExiwjRcCgQTuX9MyTho9cEBhRP0YYXg+ZiYtSVlxO6E1UfIokOpl7CiCKJ6CymTs0kuo1Q+b2N2+x4u0P24Prcc+rh9hiWkg2SkgsVKunBVZTqY1jbQ7p6DwU6n0crggpQIoSgQvDy0H0KM9A3qKudh+S5jxfMunHB8Z/riiMdZfuv4kH9H6O8wUPC0ECUe4ueDRxA3kSiHUcRtKjRNW7K0+YATnNKiZtLxpmCwHKAgGiAKAXkJpzT/VRxBdrdZ4m64yxuYSGOLKwlKrx1JUwCHHPAQzZADSTxpGhDi68r85zgHiPsqZJ6ukDk7jvVLzPJEvLH22Lc6+z/M8etYPtn2CLU3iOhvBUSlp7awNZiZZOChh851MnsWFPUEh+19uX/4yIfpD+uzORK+nAmbWQ6v1Q96blffCAPZx7k2WtpPVsGGaLa7TXxjCbQaYyo3iAzdsEGDYJFBpDkUQDbZGRIoNHBpRxxVckXf0AlyK+P6m33l8mARha8C3PoZAyHGAQRnH32UVD4StDLAdg5FDvDAecMpZrLB6w3012NQuPOguPGVcJn9k0EXAArtgcjQxt/wxPyyrtw7kKN2GnIgFD91Mfzzw8bxyAytg8wTIBVOqG4ZDsa231ew/b7jPbsMUZ09MdGxpkpDZradTza+vCEhhEw0a92fWSgeEMVHEMaWpqstpGdZkfhZ/stx/1MJy3H7L7191qi/OmWcJq4iQxNqWaiuG2EzejJFx4NGzfydzdWIG1d0lERvlN8daP5Vy595iRf4lcKjCiUKByRITTN1KTwA0yuX4W4MkAPJqGMA+gzCXMxFeNtfiaCd6JNwfPM586JVaqlxjD02g05yIVSdeGNHAbX8Alss713GNyTYHDH2FKSNPwQwKhW1Mv01eOtZzXrrflbzxk3556D1scByB11tDS6MsePHNACAixlPV8u14yMEREBQolLc1NIJIsRp3q2hKyjkzliH1jhdtfsAUrbrWs9VNsgTIFGLaewxpX/t/whStxn1fhJiFxTsAAhkDgs8HICNTNrOlwmm7vLB6CJwMoxcPNBnCcb/CLlUsFhmcVDgYZT6I+CaWfgYuIrCZi3DhCaDJgSMAzzCoabTNJrWeXEgaqqV+1QiRkWByC87XaT9sshS0QghdS4xCPCWls2HXAAVLBOdV9IMx9be6Gq0mrx9s9pdeTrUxC51PtldcX+7NnTtsBO9tRZ43EfrXlZshkC+7iQpvHXTIwWppbrLWp2QHCRwej+sPO4D3OtmsRr2ZQHLK39xeRys63zDUTQDVkrLQ/ALnc0vyZrFegQGIoCg09gHgIUsRUbfYmIXXsBIcDQ8oXKQVQcq89jP3PyKUCQ4RSXCJLJNOJdiDOGmlO9GfOaqXYAMLGQLiEuvnH2byKSXw3FbkeI8MpxB8wbBrAyPTpfoHMJtE4kjx1DVlKRNqjPg6FU1/jU/m/4SUDQh9LIYQ0bxxp+BjLKRhhOWsn2GPFs+3tHwqxg5ZmNNtZDFQP92hpD4u3erPrpYcS/JFWere1kL8ACPBgcBzPgDX0e5Z09zTg0DyKfxwrt4cLZlnqsqF2D5VeCDjSiq8EGIhaPwoMwIg8BmAQIIqJv755mTxG1FP4PwQYxRBrWn9WEQbmvTyeOFGCRoar+9k8sp/51Xo/xOZwr3kizFVTaO3T7O4NE23uKjzE6sstee1VkMeBcJHREE4AQMahzV219EKbySt1lUTACONNkNoK6e1/AyT4CNlaGkBKyFfHGVmQSDteJHX1MHu8LMle312OBz+EN1cneR1/NQzwGwGjQ67Jp6fzHiCI6UqUJTXwWge5URGOtespoN/Z7vZ3bMX7SyzlRQjayqG2iIoGjhHxhSgjwHBK5zpdKYZw/qFYHlqlWLoP9+vYXyiXCgzttpepTjK8mp4SoOwqAfIYR9o7lzR6VvkVLvE1pL/VeLuqMZZAq57x2jU2+7Wh9qfq2+yl9+bbQyXXW8YawJU3lmtxHa7rYAAo8TFyK1GKr7Q29JngqUirM0out/hcPAdkN02TgqoAT9VAzrsMkPazLLxQ+vpJtmTtHCvfsdqOdezzjrBmRItDerPrpXMMpbAYXhN7mppAYgwYWizkE50AS11rK7fXAJbWb/5g37dstcovX7SH1szw/RxSNbPcO7xUaRkMcNDqAmAksWmD3cYcOlPQCES/UC6ZYxDy0oqutZTiibj8cW48TReYB7meW9Pf4jdBspH5JYSWosFkK2MsHo+Z8OpwW/qPLPvWytDI65b/6eN2/4Y7LHvtdYSBqQBuAnUjrYdkhseaBlG67t4CUHhnWQEEt+AaywIsKWRC8wsJW8X9ba42kd3cxxI39iWc9eX3MbYw7zp7YO0sy3v3OfuxbjvAOEQWe6YXm/4KwFA/RzS7OkxyCUzXh1gkeA5BR5N/1IevJYi1pllg+23Hka32t4332LzVtLaCKYSLSZZcRKuAjfsuMZV9LLUaclp9Oe73SjKY/pYMUdOOufOKh1icek0xhBsYItZd0io0O4qWxfueYOguPweMdM5Pxzhp5x1HyCgebPEFeAeVmZaaVEUKWTXU4jby/cZBhBBScsJlXMk1ZBbwo3WjbO5zA+1BsrR3fnyFmP8B8iXyI3nDLntrT779MT/OZ5ZnF2nbCcKCenwJF/64TfXqll5t8UV4S3WiUX/tUJSTD6GH0Aosvh8roWseupqzsR9l6GvJmwgn8JccuNADgOOel2+2V4oesF0HttGka8+xZyS/EjDCq7zHuSJPAiRaGyGkTXCOZqtt0dwIrVKRE2umteyyvB9eRWm325xXx1l2yVTiLKlcLmgvvgzXewVK/y9A8N+keX/wDWW1cj7RV7WNJw6H3lJJsozVi3QHQk/5OWCkQCiTiwlxvOoZ6hKBQkARaDSGkbppuCVvJF0kfMyHbCqMJFYNodxwkIqxlpI7yua8MNiylk61tVsftu/Obiayf0NTCUsjatsa7XjrUULtPvvwaLU9WZVu8a+MhreMsXtfh3zDV+KLr6CuyuA0oIanIqSoSz2zcJLl5BGGisZ7edVjO78aj4HHuruGRrRpkCXwOXvjQFuEx81YDo/5+1h7cmWqbf/2HYChjVXOt+uvAIyotxQgdCj9aUa0mk2TQrQ6XT3yvoLBMxbNLqoTQVV6y+ejpLX7bLd9ZR/ask/+YomvTrZ5rwyxBbjcbEJKUqGI6ZWWRcXSqWiSTxccyauG5CeR4mkz2m6GjnmMSLr/1ptcjMfIrByBjMTIiu2ADaDIW+j3NHGHTVeSYfweYnkZhulnenZIGmExjcwgYRme5MWJ9nz1Qvv0aA2hdLc1dBzGi57BtWrXYHSBPmpRjBY1ypN+fKzSXtqy0LLWQLrXD0MPlENpsMKqxnaKB3J/yg8ZTy+cbFl5NwEMbcAyFL3gMfAu8wDm3KqRZEB4L87TSPdCyHrO6oF279JJ9tYXa3zWvx4j3ptdfz1gEE4CMAIoTKDo0BItTUCF+WqUFmRINB6jzVFETjVNRo+p+BGF7bHP7eMzVbbs/Qcsa/m1Nv8lMfbBpLdi/6RnhYNtfi4tIl/eYZylV00loyGVU6vu5h0EiF8rlCQQv+fn9ofYaVBPHmC4h5ZOgGi1OuEuc9MAW/D6UMshnKTkEk6WDrX4F8faY0UJ9vaeDTSAb9DEUe9o0rBC49lm0ziXxid97bHIOh5Wj8LSfNLvmrfYiq33WPbKSZaxdoQt1OzwSsIFITSB7CWxiFeBo3AsHGManGQcZVLfRnjUepxmwFXAZ+AeiaUQ9sKrLQOCmrNiuBV99DDhaxf302w2EoceNpX8eqFEwPBJIJoMoppq0E2CtyCM+FxKzans5B0RMdWEM83qCPMr6yBEx22nfXK0yl5780G7Z9UdlrVimmWvn2oLi6b6fIs0lJGUN8IS84Y7ExcwLiSXGkoEBC0pTNEYD+CQKKxEv2vkNJvXnGJC2uohNusZUtSnh9lTpcn2/n7t+fEN9RIgaq2lg1pqNT5qkQK0C0Gzeqo1fCFuhl400YbAgh72oolPrOKrF+yhvBmWuWoy3kNPcx5nGWQqKSKlcC2tbIv2cFcG508lEGn19FaPztKzToZDaPl92QBbSUZ4xLZzlxPWSBnUSHuz668ADIinyKcDQ4NsAgc19bULEu7OcXIV/ihNnRMBQ+KbpHI837QDoEaakabbactDLbnbVf+RFW5/2e5fM8fmPA0Ze3WULSqebPdVXWsLRL5oEem4ekl3DxF5kEsFhgAhzxCBojOEkBlIUtfTMl8YanP/NswWLb/JVm/9k+04WU2L3En9jsKnjlpDy2nqTMaGJTSlBVVZPYBo0GQWqUZqIpTIk6gbWR1P2sRNgDpiX9vmnWvsYUhp0muTLC13ImFKRpdnIEuDf6R556BGfklT8aRJJZMBzAQ+aw7uKEvNJaNZOsRe2JJi37W+A+iOcW3uIzsgvdn10oFBrcLaz7BlT7RckPuGrnJZX3anAPojrqH14oqoSmJ9joeWJpxqtLbTHBycjKe8GhZW3NXSu8Mo+h/HS+zFLVmWsnSYzXruvyxxxe99EU53AETcQiARWC41lMj44hc5NXCealoqQJm7/iq7i3tPf+3/WPJrE+zpkntt8ze5trf5U8q630OG0sAO1U2xs5msrIEGIF3IELxIRdqBubldPKyW7wkxuJAOjWzhPtrRztmmM3YKYB1q+97e2FNoz7yxxLLzbya0DScrI8RVkYpWX2apVf8LUkrmAhCSBYqiG0hd9eC9UXgzvMfK/vZ41Szb0VBFyX7gmg12lqKd5da+YKuHTSW/ATCoVzdguAbUKgBMG94kWmethdNtqNEgP2go5j4QgCGKotirNRJh4Ywis/pA9vL3C8jq6/be4Zds2XtJtmj9RJv7GqnhclrFKnjIOjxH3mhP47KJy1klo71HUjm/T5YBQGHIXOMtg/w7/R5kJOcpBVRGwLmFxO31oyx+BR7h1UE24/n+CC10DWB4L9HKDz9lO9u1C5BaoBY/aW3tWQi2QikFV8PgLRUIaEDa2mgWGL+RsKL/pQff5B/n7o8012ZvjXhd6ZFv61rr7HTHCTR12D46tdn+UpNlSasnk97LI2jqQR9LqvlfllR5lXd+yWOkalkkWYrqkbBssD1Scbt9dLoIH6StrOSNaatc3MOXy/l2vWRgnJue6nOYJRQBJEj3gRoBSQuCBKYwOdUDXWwwzpUp4Twu6cQ2rHXRClMluHrQ3nFEK7sPYpIv7Iv6Ktu0e6kt23K/PZY/1xa+doMl/30MsX6Q3f10P5vz96ts/iukvyuu8q7nlA1XWvKGyy1pw+8tZW0/S1uF91gxjDA12OY+P9DmPEOa9xxx+6VrLefVm+3BVXPsxer7rfKL5fb5iTfsQIf2ofgBJWs9y0nKpnUomqKvOoV5lapr5D0jHUR6COFUe3iESbphdRhNWGE30kPsPG3f1EBoqcNralByV8M2W/H2Xyzr5TsgktMB/mSLr6ZOmzWUjwcp7WcLaoYTZgHF0kH2YO5d9vbePDS2F+g1qISUIVzfSY3b5Hz5FYDx75WwKEgLjbSOZD9tdrcd7vjcvq19y7YdKrKab1+yDR8/YsvfX2TPv5lgT1TfZQ+X32QPlk6zB8um2J9Kb7UnyubYsxtT7NV3Ftv6jx6zyq9ftK378+2rM4Cg7VP4wvfcRWMMWlCtLScDELQvaQvhoLdyXaxEE6VASmfDiMQBxR91D4p3iRtoQ5Z9jV9YzWcb7E8rsixt9Q2WqAlPJVeTHWm5Aels3uWWsLy/5ZDRFH/2vIcPbRCnmXk+ZReX0dEod0xOSErUW7n+84GBNNBC63HP9Uq/MJ18i1aPnKVdi59ou6OztDZtp6jNRTQ3VXLcvnOjn+G7M7Qo9aicRtQTKdetVW3aU91DBFephwM0tDZCkOEGeDnPsC7giv9ZkTfxViwRMAQKxL0PwNCGNg14JxFyjXMcaP3KNu3IswcL4y2lSL3GEwDEUDzFWEtfN9jiXxhsuZ8+Qg2+AVAaVVW5uaa8hTifYgmg6Gj5jdLVf7+4N/SWoORGHWiqs3Sr+tdivZPNEFjClnbD0MYHWiqlSHuKTychiad5p9ir8RyN6OjhL1os7d34cuUor5FUOwKDK5d7RLyh93JdvIRe457hN4ge7NvcKi6ipckKKceB6SHkAKXea1uPltn95XGWue4mu6/kNtJaSOfSMbZ86z38+i5108IpbZFAc5FSKK8nBC6AQllhj/JI/uOB4XwEBOjVW1vMaDKewKKwrcTAPTXfaa6IWg5Jgs9w13uBqZPmxI6T+Lm8doJAnzneKUEjZBrS7M8j6aVcFyuBayjdF0AEMoT7dIqXXYRVUBXHUp/PaaCrvo6j7t0+PL3J/lq+2LJfvt0Sn7rW/l6VbXvatGWEdkDUjstaphi7tsov9slr4Bjd+V+X/OcDQ6RNq3l9zQvvZU3XcJcx5TrcmIi6WCJX7b/z/hxgRRKd36ug0AgsF1DsxYqAoUARFpQrc+OS3L87MHQrDyg09cBvfLqN1XYcBxiH8R5H7csTH9hzBQ/ZyyUP287TW/gu8CKBSeNSahDOL7rXXS0G6a1c//HA0OMq2luPUsGT1PQMQgqsrvjWM+DlFICI9TsLFd7hhkZ8FhGqVv+J526cItCIlPGqzw4euQ/u4Vp0V4GK4RntpJDtbaSZ7ere7j1GX6xEwGhxzwE4uJWKGIlm38uj8RZ7dlgz92vuUB9Q2O9C4x21hEMB5Uz7QTtct9NOt+3h9xNwruNW28xvuMsIFO4BEc24a2nmOr9Vl/i/W7zjA6cZQKFnuerBf4iP06gDrZ7PsY4RuQ3vlUXTkWdR65HCMEB7M9dUD6R+U3MFDB2AoRUwtOmpBxoYpLVK9PDtdozh20j2Uq6LlQCMmLjXoDgUKwKIPIZ4jTak08a22hSOknIeDIg6tVKfkP6qf6gBUf/QacBwmt+0+2KrV5VDOsOi3mvrrDZtDkvleyvXbw4MdYP/1H8/9yTjnxcpCwKFAlxoFqFbPog3k3OAgESad+1rcE8b0alPBeVKwTK2i1qlOo9DC40k7L0RxA3Sa7kuTsQfKL2DIgjFioEjKm4kHO7iKW5MImBHdXG352NUagiql/pJdC/pWdcJoAqb0+mpUf8mj/FbA+M8O/fAgDf8TgmdTGgjdgDeAcXIJbuiAIPWfKqjKhJlJuF/fQr9torZkcj991auixUBI/CLSKhHDBiddYpJ97pQ0CAKe53hTyfwpXOtLgngCI1GQAhgV45W63XurVz/+cCQHnqTHkoNIiDpPHmZ0Ouo1hNAwCvfqfVqaaYv0+whvrNwJFxPIrrSW7n+GQnlEvEM5DMqe886nAMM9xKIANEpFMxP4oBoENNBoTky8oBhjErj2Rqnkvi+GT3KI/m/w2MICN1F33WTsNxSKWG37ngUEryDABG1VggZxe0EA+d2FwFB7L676H69letiJer5DN5M1wogkNfoGVb023nAcHDEDhY4/Dve6wR5RAEjFhbFQbqAofCoUPhv6sf4rYGh2Ok6cNH7WAvsDgR8QIipQSlB1FpoNfIYnHtBiRm/u3TOKJDwufdyXZxQQC4qQRlcKwJHAGkQvY9sHXmNAACdox/4Qj92u0YQ6bYrfHSGTDUIvpOHlJ56K9d/PDDCQuuIbEbxNBIRySDOH9yVSjHdRMqRfVy6gywYoae4wjFAp+j7Xsp1sUIBurV0xK8nDydQxAhpjMsIIKGHVGBAQIu8jYzv14uV0XEi8XqokXRrHK4LASJ4W9W5Z5kk//HAcA0oSfemfJ5WYhKU6UaU8FWXCFy9Ayukt4j3jIntI94n0k04rmeZ/hlxMHSSR4Ry6nvPVhwUXels1EOq36OdcsSXOp+Fr8v1IueGUd7rO0lMTd3LE8n/JcCIhM9d2ogJN4m1RAGjExwxccB0giGkrJJOIJwzTVF9IqFjq0t6J28XK2r1DgoHRiizvu/KVgIgIolcf8RN9LmLJ3VV/1xVhOMCKLp5RerfOzDa7f8HYQoWJcmnpDQAAAAASUVORK5CYII=;" vertex="1" parent="1">
          <mxGeometry x="497.25" y="60" width="78.5" height="76.16" as="geometry" />
        </mxCell>
        <mxCell id="FJv2uxmNR5FinH8oX0lj-22" value="" style="shape=flexArrow;endArrow=classic;html=1;rounded=0;entryX=0.197;entryY=-0.081;entryDx=0;entryDy=0;entryPerimeter=0;" edge="1" parent="1">
          <mxGeometry width="50" height="50" relative="1" as="geometry">
            <mxPoint x="503" y="162" as="sourcePoint" />
            <mxPoint x="503.0135399999999" y="248.01607" as="targetPoint" />
          </mxGeometry>
        </mxCell>
        <mxCell id="FJv2uxmNR5FinH8oX0lj-24" value="" style="shape=flexArrow;endArrow=classic;html=1;rounded=0;entryX=0.197;entryY=-0.081;entryDx=0;entryDy=0;entryPerimeter=0;" edge="1" parent="1">
          <mxGeometry width="50" height="50" relative="1" as="geometry">
            <mxPoint x="536" y="162" as="sourcePoint" />
            <mxPoint x="536.0135399999999" y="248.01607" as="targetPoint" />
          </mxGeometry>
        </mxCell>
        <mxCell id="FJv2uxmNR5FinH8oX0lj-25" value="" style="shape=flexArrow;endArrow=classic;html=1;rounded=0;entryX=0.197;entryY=-0.081;entryDx=0;entryDy=0;entryPerimeter=0;" edge="1" parent="1">
          <mxGeometry width="50" height="50" relative="1" as="geometry">
            <mxPoint x="569" y="162" as="sourcePoint" />
            <mxPoint x="569.0135399999999" y="248.01607" as="targetPoint" />
          </mxGeometry>
        </mxCell>
        <mxCell id="FJv2uxmNR5FinH8oX0lj-28" value="EV_Account" style="sketch=0;outlineConnect=0;fontColor=#232F3E;gradientColor=none;strokeColor=#232F3E;fillColor=#ffffff;dashed=0;verticalLabelPosition=bottom;verticalAlign=top;align=center;html=1;fontSize=12;fontStyle=0;aspect=fixed;shape=mxgraph.aws4.resourceIcon;resIcon=mxgraph.aws4.topic_2;" vertex="1" parent="1">
          <mxGeometry x="514" y="536" width="49" height="49" as="geometry" />
        </mxCell>
        <mxCell id="FJv2uxmNR5FinH8oX0lj-31" value="business logic" style="sketch=0;pointerEvents=1;shadow=0;dashed=0;html=1;strokeColor=none;fillColor=#505050;labelPosition=center;verticalLabelPosition=bottom;verticalAlign=top;outlineConnect=0;align=center;shape=mxgraph.office.concepts.script;" vertex="1" parent="1">
          <mxGeometry x="216" y="543.5" width="37" height="34" as="geometry" />
        </mxCell>
        <mxCell id="FJv2uxmNR5FinH8oX0lj-33" value="" style="shape=flexArrow;endArrow=classic;html=1;rounded=0;fillColor=#f8cecc;strokeColor=#b85450;" edge="1" parent="1">
          <mxGeometry width="50" height="50" relative="1" as="geometry">
            <mxPoint x="305" y="440" as="sourcePoint" />
            <mxPoint x="465" y="440" as="targetPoint" />
          </mxGeometry>
        </mxCell>
        <mxCell id="FJv2uxmNR5FinH8oX0lj-34" value="&lt;b&gt;Dead Letter&lt;/b&gt;" style="edgeLabel;html=1;align=left;verticalAlign=middle;resizable=0;points=[];" vertex="1" connectable="0" parent="FJv2uxmNR5FinH8oX0lj-33">
          <mxGeometry x="-0.6875" y="-5" relative="1" as="geometry">
            <mxPoint x="5" y="11" as="offset" />
          </mxGeometry>
        </mxCell>
      </root>
    </mxGraphModel>
  </diagram>
</mxfile>
